<svg width="248" height="412" viewBox="0 0 248 412" fill="none" xmlns="http://www.w3.org/2000/svg">
<rect width="248" height="412" rx="10" fill="#FAFAFA"/>
<path d="M0 0C54.6346 0 107.031 21.7035 145.664 60.336C184.296 98.9685 206 151.365 206 206C206 260.635 184.297 313.031 145.664 351.664C107.032 390.296 54.6346 412 3.05176e-05 412L0 206L0 0Z" fill="#E2E700"/>
<path d="M99.2652 109.154C178.968 109.279 243.479 173.991 243.354 253.694C243.23 333.396 178.518 397.907 98.8149 397.783C61.8085 397.725 25.5614 385.957 0.0541 363.015C0.110641 326.728 0.153753 299.081 0.220367 256.385C0.286949 213.689 0.689096 177.389 0.389353 148.136C26.2489 123.908 61.0324 109.095 99.2652 109.154Z" fill="#54B9B5"/>
<path d="M125.264 339.772C125.264 335.701 126.881 331.797 129.76 328.918C132.639 326.039 136.543 324.421 140.614 324.421H173.509V339.334C173.509 343.521 171.846 347.538 168.885 350.499C165.924 353.46 161.907 355.123 157.72 355.123H140.614C136.543 355.123 132.639 353.506 129.76 350.627C126.881 347.748 125.264 343.844 125.264 339.772ZM20 357.316C20 353.245 21.6173 349.34 24.4962 346.462C27.375 343.583 31.2796 341.965 35.3509 341.965H63.8598V356.878C63.8598 358.951 63.4514 361.004 62.6579 362.92C61.8644 364.836 60.7013 366.576 59.2352 368.043C57.769 369.509 56.0283 370.672 54.1127 371.465C52.197 372.259 50.1438 372.667 48.0703 372.667H35.3509C31.2796 372.667 27.375 371.05 24.4962 368.171C21.6173 365.292 20 361.388 20 357.316Z" fill="#313234" stroke="#E2E700" stroke-opacity="0.51" stroke-width="20" stroke-linejoin="round"/>
<path d="M63.8599 355.123V232.316L173.509 206V336.229M63.8599 267.597L173.509 241.636L63.8599 267.597Z" stroke="#E2E700" stroke-opacity="0.51" stroke-width="20" stroke-linecap="round" stroke-linejoin="round"/>
<path d="M70.5737 103.206L57.7189 197.697" stroke="#88CECC" stroke-width="10" stroke-linecap="round" stroke-linejoin="round"/>
<path d="M11.6414 194.88C12.2339 190.524 14.5323 186.583 18.031 183.922C21.5297 181.261 25.942 180.099 30.2974 180.692L59.4919 184.664L56.85 204.083C56.2575 208.439 53.9591 212.38 50.4604 215.041C46.9617 217.702 42.5494 218.864 38.194 218.271L25.4214 216.533C21.0661 215.941 17.1245 213.642 14.4637 210.144C11.803 206.645 10.6411 202.233 11.2336 197.877L11.6414 194.88Z" fill="#313234" fill-opacity="0.51" stroke="#88CECC" stroke-width="10" stroke-linejoin="round"/>
<path d="M66.9983 129.487L107.621 145.155L111.215 118.734L70.5737 103.206L66.9983 129.487Z" stroke="#88CECC" stroke-width="10" stroke-linecap="round" stroke-linejoin="round"/>
</svg>
