<svg width="160" height="128" viewBox="0 0 160 128" fill="none" xmlns="http://www.w3.org/2000/svg">
<rect x="83" y="37" width="67" height="69" fill="white"/>
<path d="M64 0L80 16H144C148.243 16 152.313 17.6857 155.314 20.6863C158.314 23.6869 160 27.7565 160 32V112C160 120.8 152.8 128 144 128H16C11.7565 128 7.68687 126.314 4.68629 123.314C1.68571 120.313 0 116.243 0 112V16C0 7.12 7.12 0 16 0H64ZM136 40H108V72.48L104 72C99.7565 72 95.6869 73.6857 92.6863 76.6863C89.6857 79.6869 88 83.7565 88 88C88 92.2435 89.6857 96.3131 92.6863 99.3137C95.6869 102.314 99.7565 104 104 104C112.88 104 120 96.88 120 88V56H136V40Z" fill="#54B9B5"/>
<path d="M25.048 101.384H23.224C23.48 98.504 25.176 90.056 28.312 76.04C31.448 61.96 33.4 51.432 34.168 44.456C34.168 43.432 33.816 42.216 33.112 40.808C32.472 39.336 31.8 38.152 31.096 37.256L30.136 35.912L30.424 34.472C34.008 33.384 40.184 32.84 48.952 32.84C49.784 34.376 50.2 36.584 50.2 39.464C50.2 42.28 48.6 50.28 45.4 63.464H45.88C51.576 63.464 55.64 61.32 58.072 57.032C60.568 52.68 62.424 45.384 63.64 35.144C68.184 33.608 72.952 32.84 77.944 32.84C78.072 33.288 78.104 34.376 78.04 36.104C78.04 37.832 77.72 40.072 77.08 42.824C76.44 45.512 75.48 48.36 74.2 51.368C72.984 54.376 71.16 57.224 68.728 59.912C66.36 62.536 63.608 64.648 60.472 66.248C64.184 78.92 67.384 87.176 70.072 91.016C71.224 92.616 72.12 93.416 72.76 93.416C73.912 93.416 75.704 92.84 78.136 91.688L79.288 91.112L81.496 94.664C79.128 96.84 76.376 98.632 73.24 100.04C70.168 101.448 67.256 102.152 64.504 102.152C61.752 102.152 59.576 101.064 57.976 98.888C56.44 96.712 55.128 94.024 54.04 90.824C53.016 87.56 51.928 83.72 50.776 79.304C49.624 74.888 48.856 71.56 48.472 69.32C47.896 69.384 46.392 69.416 43.96 69.416C40.184 85.416 38.296 95.432 38.296 99.464C35.8 100.744 31.384 101.384 25.048 101.384Z" fill="white"/>
</svg>
