<svg width="514" height="272" viewBox="0 0 514 272" fill="none" xmlns="http://www.w3.org/2000/svg">
<path d="M456 135C456 204.588 399.588 261 330 261C260.412 261 204 204.588 204 135C204 65.4121 260.412 9 330 9C399.588 9 456 65.4121 456 135ZM266.357 135C266.357 170.149 294.851 198.643 330 198.643C365.149 198.643 393.643 170.149 393.643 135C393.643 99.8509 365.149 99.5 330 99.5C294.851 99.5 266.357 99.8509 266.357 135Z" fill="#54B9B5" fill-opacity="0.13"/>
<path d="M288 272C357.588 272 414 215.588 414 146C414 76.4121 357.588 20 288 20C218.412 20 162 76.4121 162 146C162 215.588 218.412 272 288 272Z" fill="#C4C4C4" fill-opacity="0.4"/>
<path d="M254 113H269.417" stroke="black" stroke-width="4" stroke-linecap="round" stroke-linejoin="round"/>
<path d="M254 94.5H269.417" stroke="black" stroke-width="4" stroke-linecap="round" stroke-linejoin="round"/>
<path d="M254 76H269.417" stroke="black" stroke-width="4" stroke-linecap="round" stroke-linejoin="round"/>
<path d="M254 57.5H269.417" stroke="black" stroke-width="4" stroke-linecap="round" stroke-linejoin="round"/>
<path d="M287.917 113H303.333" stroke="black" stroke-width="4" stroke-linecap="round" stroke-linejoin="round"/>
<path d="M287.917 94.5H303.333" stroke="black" stroke-width="4" stroke-linecap="round" stroke-linejoin="round"/>
<path d="M287.917 76H303.333" stroke="black" stroke-width="4" stroke-linecap="round" stroke-linejoin="round"/>
<path d="M287.917 57.5H303.333" stroke="black" stroke-width="4" stroke-linecap="round" stroke-linejoin="round"/>
<path d="M287.917 39H303.333" stroke="black" stroke-width="4" stroke-linecap="round" stroke-linejoin="round"/>
<path d="M287.917 20.5H303.333" stroke="black" stroke-width="4" stroke-linecap="round" stroke-linejoin="round"/>
<path d="M287.917 2H303.333" stroke="black" stroke-width="4" stroke-linecap="round" stroke-linejoin="round"/>
<path d="M321.833 113H337.25" stroke="black" stroke-width="4" stroke-linecap="round" stroke-linejoin="round"/>
<path d="M355.75 113H371.167" stroke="black" stroke-width="4" stroke-linecap="round" stroke-linejoin="round"/>
<path d="M321.833 94.5H337.25" stroke="black" stroke-width="4" stroke-linecap="round" stroke-linejoin="round"/>
<path d="M355.75 94.5H371.167" stroke="black" stroke-width="4" stroke-linecap="round" stroke-linejoin="round"/>
<path d="M321.833 76H337.25" stroke="black" stroke-width="4" stroke-linecap="round" stroke-linejoin="round"/>
<path d="M355.75 76H371.167" stroke="black" stroke-width="4" stroke-linecap="round" stroke-linejoin="round"/>
<path d="M355.75 57.5H371.167" stroke="black" stroke-width="4" stroke-linecap="round" stroke-linejoin="round"/>
<path d="M355.75 39H371.167" stroke="black" stroke-width="4" stroke-linecap="round" stroke-linejoin="round"/>
<rect x="322" y="113" width="67" height="69" fill="white"/>
<path d="M303 76L319 92H383C387.243 92 391.313 93.6857 394.314 96.6863C397.314 99.6869 399 103.757 399 108V188C399 196.8 391.8 204 383 204H255C250.757 204 246.687 202.314 243.686 199.314C240.686 196.313 239 192.243 239 188V92C239 83.12 246.12 76 255 76H303ZM375 116H347V148.48L343 148C338.757 148 334.687 149.686 331.686 152.686C328.686 155.687 327 159.757 327 164C327 168.243 328.686 172.313 331.686 175.314C334.687 178.314 338.757 180 343 180C351.88 180 359 172.88 359 164V132H375V116Z" fill="#54B9B5"/>
<path d="M424.408 140.424C424.408 143.112 423.544 147.752 421.816 154.344C420.088 160.872 419.224 165.16 419.224 167.208C419.224 169.192 419.512 170.184 420.088 170.184C420.472 170.184 421.944 169.576 424.504 168.36L425.656 167.784L427.288 171.144C426.712 171.656 425.944 172.296 424.984 173.064C424.024 173.832 422.232 174.888 419.608 176.232C416.984 177.512 414.552 178.152 412.312 178.152C410.072 178.152 408.312 177.48 407.032 176.136C405.752 174.728 405.112 172.872 405.112 170.568C405.112 168.2 405.912 164.04 407.512 158.088C409.112 152.072 409.912 148.168 409.912 146.376C409.912 143.688 409.08 141.16 407.416 138.792L406.552 137.64L406.648 136.392C410.04 135.432 415.544 134.952 423.16 134.952C423.992 135.912 424.408 137.736 424.408 140.424ZM413.464 124.488C412.184 123.208 411.544 121.512 411.544 119.4C411.544 117.288 412.408 115.432 414.136 113.832C415.928 112.232 417.976 111.432 420.28 111.432C422.584 111.432 424.376 112.072 425.656 113.352C426.936 114.632 427.576 116.328 427.576 118.44C427.576 120.488 426.648 122.312 424.792 123.912C423 125.512 420.984 126.312 418.744 126.312C416.504 126.312 414.744 125.704 413.464 124.488ZM427.909 198.504C427.588 197.736 427.428 196.04 427.428 193.416C427.428 190.792 428.676 183.752 431.173 172.296C433.669 160.776 434.917 151.912 434.917 145.704C434.917 144.488 434.629 143.208 434.053 141.864C433.477 140.456 432.869 139.368 432.229 138.6L431.365 137.544L431.461 136.296C434.469 135.336 439.781 134.856 447.397 134.856C448.101 136.2 448.549 138.088 448.741 140.52C453.669 136.488 457.765 134.472 461.029 134.472C464.357 134.472 467.013 135.848 468.997 138.6C471.045 141.352 472.069 145.384 472.069 150.696C472.069 159.976 470.373 166.888 466.981 171.432C463.589 175.912 459.301 178.152 454.117 178.152C451.429 178.152 449.189 177.768 447.397 177L446.437 176.616L447.109 172.872C447.685 173 448.357 173.064 449.125 173.064C450.789 173.064 452.229 172.296 453.445 170.76C454.725 169.224 455.685 167.272 456.325 164.904C457.605 160.168 458.245 155.784 458.245 151.752C458.245 145.992 457.061 143.112 454.693 143.112C452.837 143.112 450.853 143.848 448.741 145.32C448.485 149.8 447.173 157.64 444.805 168.84C442.437 180.04 441.253 189.064 441.253 195.912C437.797 197.32 433.349 198.184 427.909 198.504ZM506.107 164.424C506.107 168.456 504.315 171.752 500.731 174.312C497.211 176.872 493.179 178.152 488.635 178.152C484.091 178.152 480.475 177.192 477.787 175.272C475.163 173.352 473.851 171.656 473.851 170.184C473.851 169.288 474.971 167.848 477.211 165.864C479.451 163.816 481.339 162.568 482.875 162.12C486.075 164.488 488.699 168.232 490.747 173.352C493.115 173.16 494.299 172.04 494.299 169.992C494.299 167.048 491.707 162.888 486.523 157.512C481.339 152.072 478.747 147.752 478.747 144.552C478.747 141.352 480.187 138.888 483.067 137.16C485.947 135.368 489.403 134.472 493.435 134.472C497.531 134.472 500.603 135.208 502.651 136.68C504.699 138.088 505.723 140.04 505.723 142.536C505.723 144.968 503.771 148.36 499.867 152.712C500.315 153.16 500.891 153.768 501.595 154.536C502.299 155.24 503.227 156.616 504.379 158.664C505.531 160.712 506.107 162.632 506.107 164.424ZM496.891 149.352C499.579 147.048 500.923 144.776 500.923 142.536C500.923 140.296 499.387 139.176 496.315 139.176C494.843 139.176 493.627 139.496 492.667 140.136C491.707 140.712 491.227 141.384 491.227 142.152C491.227 143.56 492.635 145.544 495.451 148.104L496.891 149.352Z" fill="#141414"/>
<path d="M264.048 177.384H262.224C262.48 174.504 264.176 166.056 267.312 152.04C270.448 137.96 272.4 127.432 273.168 120.456C273.168 119.432 272.816 118.216 272.112 116.808C271.472 115.336 270.8 114.152 270.096 113.256L269.136 111.912L269.424 110.472C273.008 109.384 279.184 108.84 287.952 108.84C288.784 110.376 289.2 112.584 289.2 115.464C289.2 118.28 287.6 126.28 284.4 139.464H284.88C290.576 139.464 294.64 137.32 297.072 133.032C299.568 128.68 301.424 121.384 302.64 111.144C307.184 109.608 311.952 108.84 316.944 108.84C317.072 109.288 317.104 110.376 317.04 112.104C317.04 113.832 316.72 116.072 316.08 118.824C315.44 121.512 314.48 124.36 313.2 127.368C311.984 130.376 310.16 133.224 307.728 135.912C305.36 138.536 302.608 140.648 299.472 142.248C303.184 154.92 306.384 163.176 309.072 167.016C310.224 168.616 311.12 169.416 311.76 169.416C312.912 169.416 314.704 168.84 317.136 167.688L318.288 167.112L320.496 170.664C318.128 172.84 315.376 174.632 312.24 176.04C309.168 177.448 306.256 178.152 303.504 178.152C300.752 178.152 298.576 177.064 296.976 174.888C295.44 172.712 294.128 170.024 293.04 166.824C292.016 163.56 290.928 159.72 289.776 155.304C288.624 150.888 287.856 147.56 287.472 145.32C286.896 145.384 285.392 145.416 282.96 145.416C279.184 161.416 277.296 171.432 277.296 175.464C274.8 176.744 270.384 177.384 264.048 177.384Z" fill="white"/>
<path d="M41.472 158.184C41.472 164.328 39.136 169.192 34.464 172.776C29.792 176.36 24.128 178.152 17.472 178.152C12.992 178.152 9.28 177.032 6.336 174.792C3.456 172.488 1.856 170.536 1.536 168.936C2.24 166.824 3.744 164.456 6.048 161.832C8.352 159.208 10.432 157.608 12.288 157.032C15.552 159.144 18.592 163.848 21.408 171.144C25.568 171.016 27.648 168.744 27.648 164.328C27.648 161.896 26.656 158.92 24.672 155.4C22.752 151.816 20.64 148.488 18.336 145.416C16.032 142.28 13.888 138.792 11.904 134.952C9.984 131.048 9.024 127.592 9.024 124.584C9.024 119.72 10.976 115.88 14.88 113.064C18.848 110.248 23.296 108.84 28.224 108.84C33.152 108.84 36.96 109.896 39.648 112.008C42.4 114.12 43.776 116.52 43.776 119.208C43.776 121.896 42.752 124.648 40.704 127.464C38.656 130.28 36.608 132.52 34.56 134.184L31.488 136.68C32.256 137.704 33.184 139.016 34.272 140.616C35.36 142.216 36.832 144.936 38.688 148.776C40.544 152.616 41.472 155.752 41.472 158.184ZM34.08 126.696C34.976 125.864 35.776 124.872 36.48 123.72C37.184 122.504 37.536 121.256 37.536 119.976C37.536 118.632 36.768 117.512 35.232 116.616C33.696 115.72 31.84 115.272 29.664 115.272C27.552 115.272 25.76 115.784 24.288 116.808C22.88 117.768 22.176 118.952 22.176 120.36C22.176 121.704 22.624 123.304 23.52 125.16C24.48 126.952 25.408 128.456 26.304 129.672L27.744 131.496C28.384 131.176 29.376 130.504 30.72 129.48C32.128 128.456 33.248 127.528 34.08 126.696ZM60.7575 178.152C56.3415 178.152 52.8855 176.616 50.3895 173.544C47.8935 170.408 46.6455 166.056 46.6455 160.488C46.6455 153.384 48.5335 147.272 52.3095 142.152C56.1495 137.032 61.4295 134.472 68.1495 134.472L71.6055 134.664C72.6935 134.088 73.9095 133.8 75.2535 133.8C80.3095 133.8 82.8375 138.568 82.8375 148.104C85.4615 147.976 88.1175 147.624 90.8055 147.048L92.3415 146.664L92.9175 150.408C90.8055 151.304 87.9575 152.104 84.3735 152.808L82.4535 153.192C81.2375 159.912 78.7735 165.768 75.0615 170.76C71.3495 175.688 66.5815 178.152 60.7575 178.152ZM65.9415 169.896C68.6295 169.896 71.0295 168.168 73.1415 164.712C75.3175 161.256 76.8215 157.608 77.6535 153.768C70.8055 153.768 67.3815 151.208 67.3815 146.088C67.3815 144.04 67.7975 142.12 68.6295 140.328L69.1095 139.368C68.8535 139.24 68.5335 139.176 68.1495 139.176C67.7655 139.176 67.4775 139.24 67.2855 139.368C65.6855 140.392 64.1815 142.792 62.7735 146.568C61.3655 150.344 60.6615 154.664 60.6615 159.528C60.6615 166.44 62.4215 169.896 65.9415 169.896ZM86.4293 169.8C86.4293 167.048 87.2613 162.376 88.9253 155.784C90.5893 149.128 91.4213 145.064 91.4213 143.592C91.4213 142.056 90.2693 140.04 87.9653 137.544L88.0613 136.296C92.4133 135.4 98.1413 134.952 105.245 134.952C105.565 135.784 105.725 137.288 105.725 139.464C105.725 141.64 104.829 146.28 103.037 153.384C101.245 160.488 100.349 164.904 100.349 166.632C100.349 168.36 100.989 169.224 102.269 169.224C104.125 169.224 106.269 168.552 108.701 167.208C108.957 165.672 109.597 162.728 110.621 158.376C112.925 148.136 114.077 140.808 114.077 136.392C116.317 135.496 120.349 135.048 126.173 135.048H127.997C127.997 138.056 127.101 143.944 125.309 152.712C123.517 161.416 122.621 166.536 122.621 168.072C122.621 169.544 122.941 170.28 123.581 170.28C123.965 170.28 125.789 169.512 129.053 167.976L130.877 171.048C125.181 175.784 120.189 178.152 115.901 178.152C113.853 178.152 112.093 177.576 110.621 176.424C109.213 175.272 108.413 173.768 108.221 171.912C103.037 176.136 98.3333 178.248 94.1093 178.248C91.8693 178.248 90.0133 177.512 88.5413 176.04C87.1333 174.568 86.4293 172.488 86.4293 169.8ZM136.16 177.288H134.336C134.336 174.28 135.232 168.52 137.023 160.008C138.88 151.496 139.808 146.664 139.808 145.512C139.808 143.4 138.912 141.16 137.12 138.792L136.256 137.64L136.352 136.392C139.808 135.432 145.344 134.952 152.96 134.952C153.792 136.04 154.24 138.024 154.304 140.904C159.872 136.616 164.576 134.472 168.416 134.472C170.72 134.472 172.544 135.272 173.888 136.872C175.296 138.472 176 140.488 176 142.92C176 145.288 175.264 149.416 173.792 155.304C172.32 161.192 171.584 165.16 171.584 167.208C171.584 169.192 171.84 170.184 172.352 170.184C172.736 170.184 174.08 169.576 176.384 168.36L177.536 167.784L179.264 171.144C178.688 171.656 177.92 172.296 176.96 173.064C176 173.832 174.208 174.888 171.584 176.232C169.024 177.512 166.72 178.152 164.672 178.152C160 178.152 157.664 175.496 157.664 170.184C157.664 167.944 158.368 163.816 159.776 157.8C161.248 151.784 161.984 147.912 161.984 146.184C161.984 144.456 161.44 143.592 160.352 143.592C158.496 143.592 156.224 144.392 153.536 145.992C153.344 147.08 152.704 149.96 151.616 154.632C149.376 164.68 148.256 171.784 148.256 175.944C146.016 176.84 141.984 177.288 136.16 177.288ZM227.822 171.144C222.382 175.816 217.582 178.152 213.422 178.152C209.326 178.152 206.958 176.104 206.318 172.008C204.398 173.928 202.254 175.432 199.886 176.52C197.518 177.608 195.438 178.152 193.646 178.152C190.574 178.152 187.95 176.808 185.773 174.12C183.598 171.432 182.51 167.272 182.51 161.64C182.51 153.192 184.302 146.568 187.886 141.768C191.47 136.904 195.502 134.472 199.982 134.472C204.526 134.472 208.334 135.496 211.406 137.544C213.39 127.176 214.382 119.016 214.382 113.064L213.902 109.032C218.702 107.368 223.406 106.536 228.014 106.536C228.526 107.624 228.781 108.872 228.781 110.28C228.781 114.952 227.374 124.456 224.558 138.792C221.742 153.064 220.334 162.76 220.334 167.88C220.334 169.416 220.686 170.184 221.39 170.184C221.774 170.184 222.99 169.576 225.038 168.36L225.998 167.784L227.822 171.144ZM204.686 140.136C202.446 140.136 200.494 142.344 198.83 146.76C197.23 151.176 196.43 155.56 196.43 159.912C196.43 164.2 196.718 166.952 197.294 168.168C197.934 169.384 198.862 169.992 200.078 169.992C202.19 169.992 204.27 169.128 206.318 167.4C206.51 164.84 207.95 156.328 210.638 141.864C208.462 140.712 206.478 140.136 204.686 140.136Z" fill="#141414"/>
</svg>
