<svg width="607" height="261" viewBox="0 0 607 261" fill="none" xmlns="http://www.w3.org/2000/svg">
<path d="M459 135C459 204.588 402.588 261 333 261C263.412 261 207 204.588 207 135C207 65.4121 263.412 9 333 9C402.588 9 459 65.4121 459 135ZM269.357 135C269.357 170.149 297.851 198.643 333 198.643C368.149 198.643 396.643 170.149 396.643 135C396.643 99.8509 368.149 99.5 333 99.5C297.851 99.5 269.357 99.8509 269.357 135Z" fill="#54B9B5" fill-opacity="0.13"/>
<path d="M257 113H272.417" stroke="black" stroke-width="4" stroke-linecap="round" stroke-linejoin="round"/>
<path d="M257 94.5H272.417" stroke="black" stroke-width="4" stroke-linecap="round" stroke-linejoin="round"/>
<path d="M257 76H272.417" stroke="black" stroke-width="4" stroke-linecap="round" stroke-linejoin="round"/>
<path d="M257 57.5H272.417" stroke="black" stroke-width="4" stroke-linecap="round" stroke-linejoin="round"/>
<path d="M290.917 113H306.333" stroke="black" stroke-width="4" stroke-linecap="round" stroke-linejoin="round"/>
<path d="M290.917 94.5H306.333" stroke="black" stroke-width="4" stroke-linecap="round" stroke-linejoin="round"/>
<path d="M290.917 76H306.333" stroke="black" stroke-width="4" stroke-linecap="round" stroke-linejoin="round"/>
<path d="M290.917 57.5H306.333" stroke="black" stroke-width="4" stroke-linecap="round" stroke-linejoin="round"/>
<path d="M290.917 39H306.333" stroke="black" stroke-width="4" stroke-linecap="round" stroke-linejoin="round"/>
<path d="M290.917 20.5H306.333" stroke="black" stroke-width="4" stroke-linecap="round" stroke-linejoin="round"/>
<path d="M290.917 2H306.333" stroke="black" stroke-width="4" stroke-linecap="round" stroke-linejoin="round"/>
<path d="M324.833 113H340.25" stroke="black" stroke-width="4" stroke-linecap="round" stroke-linejoin="round"/>
<path d="M358.75 113H374.167" stroke="black" stroke-width="4" stroke-linecap="round" stroke-linejoin="round"/>
<path d="M324.833 94.5H340.25" stroke="black" stroke-width="4" stroke-linecap="round" stroke-linejoin="round"/>
<path d="M358.75 94.5H374.167" stroke="black" stroke-width="4" stroke-linecap="round" stroke-linejoin="round"/>
<path d="M324.833 76H340.25" stroke="black" stroke-width="4" stroke-linecap="round" stroke-linejoin="round"/>
<path d="M358.75 76H374.167" stroke="black" stroke-width="4" stroke-linecap="round" stroke-linejoin="round"/>
<path d="M358.75 57.5H374.167" stroke="black" stroke-width="4" stroke-linecap="round" stroke-linejoin="round"/>
<path d="M358.75 39H374.167" stroke="black" stroke-width="4" stroke-linecap="round" stroke-linejoin="round"/>
<rect x="325" y="113" width="67" height="69" fill="white"/>
<path d="M306 76L322 92H386C390.243 92 394.313 93.6857 397.314 96.6863C400.314 99.6869 402 103.757 402 108V188C402 196.8 394.8 204 386 204H258C253.757 204 249.687 202.314 246.686 199.314C243.686 196.313 242 192.243 242 188V92C242 83.12 249.12 76 258 76H306ZM378 116H350V148.48L346 148C341.757 148 337.687 149.686 334.686 152.686C331.686 155.687 330 159.757 330 164C330 168.243 331.686 172.313 334.686 175.314C337.687 178.314 341.757 180 346 180C354.88 180 362 172.88 362 164V132H378V116Z" fill="#54B9B5"/>
<path d="M417.048 180.384H415.224C415.48 177.504 417.176 169.056 420.312 155.04C423.448 140.96 425.4 130.432 426.168 123.456C426.168 122.432 425.816 121.216 425.112 119.808C424.472 118.336 423.8 117.152 423.096 116.256L422.136 114.912L422.424 113.472C426.008 112.384 432.184 111.84 440.952 111.84C441.784 113.376 442.2 115.584 442.2 118.464C442.2 121.28 440.6 129.28 437.4 142.464H437.88C443.576 142.464 447.64 140.32 450.072 136.032C452.568 131.68 454.424 124.384 455.64 114.144C460.184 112.608 464.952 111.84 469.944 111.84C470.072 112.288 470.104 113.376 470.04 115.104C470.04 116.832 469.72 119.072 469.08 121.824C468.44 124.512 467.48 127.36 466.2 130.368C464.984 133.376 463.16 136.224 460.728 138.912C458.36 141.536 455.608 143.648 452.472 145.248C456.184 157.92 459.384 166.176 462.072 170.016C463.224 171.616 464.12 172.416 464.76 172.416C465.912 172.416 467.704 171.84 470.136 170.688L471.288 170.112L473.496 173.664C471.128 175.84 468.376 177.632 465.24 179.04C462.168 180.448 459.256 181.152 456.504 181.152C453.752 181.152 451.576 180.064 449.976 177.888C448.44 175.712 447.128 173.024 446.04 169.824C445.016 166.56 443.928 162.72 442.776 158.304C441.624 153.888 440.856 150.56 440.472 148.32C439.896 148.384 438.392 148.416 435.96 148.416C432.184 164.416 430.296 174.432 430.296 178.464C427.8 179.744 423.384 180.384 417.048 180.384Z" fill="black"/>
<path d="M482.21 181.152C480.034 181.152 478.21 180.416 476.738 178.944C475.33 177.472 474.626 175.424 474.626 172.8C474.626 170.112 476.194 161.632 479.33 147.36C482.53 133.024 484.13 122.688 484.13 116.352L483.554 112.128C488.546 110.4 493.218 109.536 497.57 109.536C498.21 110.432 498.53 112 498.53 114.24C498.53 119.36 496.898 129.28 493.634 144C490.434 158.656 488.834 167.2 488.834 169.632C488.834 172 489.122 173.184 489.698 173.184L496.418 170.784L498.146 174.144C495.97 175.872 493.314 177.472 490.178 178.944C487.106 180.416 484.45 181.152 482.21 181.152ZM520.19 143.424C520.19 146.112 519.326 150.752 517.598 157.344C515.87 163.872 515.006 168.16 515.006 170.208C515.006 172.192 515.294 173.184 515.87 173.184C516.254 173.184 517.726 172.576 520.286 171.36L521.438 170.784L523.07 174.144C522.494 174.656 521.726 175.296 520.766 176.064C519.806 176.832 518.014 177.888 515.39 179.232C512.766 180.512 510.334 181.152 508.094 181.152C505.854 181.152 504.094 180.48 502.814 179.136C501.534 177.728 500.894 175.872 500.894 173.568C500.894 171.2 501.694 167.04 503.294 161.088C504.894 155.072 505.694 151.168 505.694 149.376C505.694 146.688 504.862 144.16 503.198 141.792L502.334 140.64L502.43 139.392C505.822 138.432 511.326 137.952 518.942 137.952C519.774 138.912 520.19 140.736 520.19 143.424ZM509.246 127.488C507.966 126.208 507.326 124.512 507.326 122.4C507.326 120.288 508.19 118.432 509.918 116.832C511.71 115.232 513.758 114.432 516.062 114.432C518.366 114.432 520.158 115.072 521.438 116.352C522.718 117.632 523.358 119.328 523.358 121.44C523.358 123.488 522.43 125.312 520.574 126.912C518.782 128.512 516.766 129.312 514.526 129.312C512.286 129.312 510.526 128.704 509.246 127.488ZM523.69 201.504C523.37 200.736 523.21 199.04 523.21 196.416C523.21 193.792 524.458 186.752 526.954 175.296C529.45 163.776 530.698 154.912 530.698 148.704C530.698 147.488 530.41 146.208 529.834 144.864C529.258 143.456 528.65 142.368 528.01 141.6L527.146 140.544L527.242 139.296C530.25 138.336 535.562 137.856 543.178 137.856C543.882 139.2 544.33 141.088 544.522 143.52C549.45 139.488 553.546 137.472 556.81 137.472C560.138 137.472 562.794 138.848 564.778 141.6C566.826 144.352 567.85 148.384 567.85 153.696C567.85 162.976 566.154 169.888 562.762 174.432C559.37 178.912 555.082 181.152 549.898 181.152C547.21 181.152 544.97 180.768 543.178 180L542.218 179.616L542.89 175.872C543.466 176 544.138 176.064 544.906 176.064C546.57 176.064 548.01 175.296 549.226 173.76C550.506 172.224 551.466 170.272 552.106 167.904C553.386 163.168 554.026 158.784 554.026 154.752C554.026 148.992 552.842 146.112 550.474 146.112C548.618 146.112 546.634 146.848 544.522 148.32C544.266 152.8 542.954 160.64 540.586 171.84C538.218 183.04 537.034 192.064 537.034 198.912C533.578 200.32 529.13 201.184 523.69 201.504ZM601.888 167.424C601.888 171.456 600.096 174.752 596.512 177.312C592.992 179.872 588.96 181.152 584.416 181.152C579.872 181.152 576.256 180.192 573.568 178.272C570.944 176.352 569.632 174.656 569.632 173.184C569.632 172.288 570.752 170.848 572.992 168.864C575.232 166.816 577.12 165.568 578.656 165.12C581.856 167.488 584.48 171.232 586.528 176.352C588.896 176.16 590.08 175.04 590.08 172.992C590.08 170.048 587.488 165.888 582.304 160.512C577.12 155.072 574.528 150.752 574.528 147.552C574.528 144.352 575.968 141.888 578.848 140.16C581.728 138.368 585.184 137.472 589.216 137.472C593.312 137.472 596.384 138.208 598.432 139.68C600.48 141.088 601.504 143.04 601.504 145.536C601.504 147.968 599.552 151.36 595.648 155.712C596.096 156.16 596.672 156.768 597.376 157.536C598.08 158.24 599.008 159.616 600.16 161.664C601.312 163.712 601.888 165.632 601.888 167.424ZM592.672 152.352C595.36 150.048 596.704 147.776 596.704 145.536C596.704 143.296 595.168 142.176 592.096 142.176C590.624 142.176 589.408 142.496 588.448 143.136C587.488 143.712 587.008 144.384 587.008 145.152C587.008 146.56 588.416 148.544 591.232 151.104L592.672 152.352Z" fill="#141414"/>
<path d="M41.472 161.184C41.472 167.328 39.136 172.192 34.464 175.776C29.792 179.36 24.128 181.152 17.472 181.152C12.992 181.152 9.28 180.032 6.336 177.792C3.456 175.488 1.856 173.536 1.536 171.936C2.24 169.824 3.744 167.456 6.048 164.832C8.352 162.208 10.432 160.608 12.288 160.032C15.552 162.144 18.592 166.848 21.408 174.144C25.568 174.016 27.648 171.744 27.648 167.328C27.648 164.896 26.656 161.92 24.672 158.4C22.752 154.816 20.64 151.488 18.336 148.416C16.032 145.28 13.888 141.792 11.904 137.952C9.984 134.048 9.024 130.592 9.024 127.584C9.024 122.72 10.976 118.88 14.88 116.064C18.848 113.248 23.296 111.84 28.224 111.84C33.152 111.84 36.96 112.896 39.648 115.008C42.4 117.12 43.776 119.52 43.776 122.208C43.776 124.896 42.752 127.648 40.704 130.464C38.656 133.28 36.608 135.52 34.56 137.184L31.488 139.68C32.256 140.704 33.184 142.016 34.272 143.616C35.36 145.216 36.832 147.936 38.688 151.776C40.544 155.616 41.472 158.752 41.472 161.184ZM34.08 129.696C34.976 128.864 35.776 127.872 36.48 126.72C37.184 125.504 37.536 124.256 37.536 122.976C37.536 121.632 36.768 120.512 35.232 119.616C33.696 118.72 31.84 118.272 29.664 118.272C27.552 118.272 25.76 118.784 24.288 119.808C22.88 120.768 22.176 121.952 22.176 123.36C22.176 124.704 22.624 126.304 23.52 128.16C24.48 129.952 25.408 131.456 26.304 132.672L27.744 134.496C28.384 134.176 29.376 133.504 30.72 132.48C32.128 131.456 33.248 130.528 34.08 129.696ZM60.7575 181.152C56.3415 181.152 52.8855 179.616 50.3895 176.544C47.8935 173.408 46.6455 169.056 46.6455 163.488C46.6455 156.384 48.5335 150.272 52.3095 145.152C56.1495 140.032 61.4295 137.472 68.1495 137.472L71.6055 137.664C72.6935 137.088 73.9095 136.8 75.2535 136.8C80.3095 136.8 82.8375 141.568 82.8375 151.104C85.4615 150.976 88.1175 150.624 90.8055 150.048L92.3415 149.664L92.9175 153.408C90.8055 154.304 87.9575 155.104 84.3735 155.808L82.4535 156.192C81.2375 162.912 78.7735 168.768 75.0615 173.76C71.3495 178.688 66.5815 181.152 60.7575 181.152ZM65.9415 172.896C68.6295 172.896 71.0295 171.168 73.1415 167.712C75.3175 164.256 76.8215 160.608 77.6535 156.768C70.8055 156.768 67.3815 154.208 67.3815 149.088C67.3815 147.04 67.7975 145.12 68.6295 143.328L69.1095 142.368C68.8535 142.24 68.5335 142.176 68.1495 142.176C67.7655 142.176 67.4775 142.24 67.2855 142.368C65.6855 143.392 64.1815 145.792 62.7735 149.568C61.3655 153.344 60.6615 157.664 60.6615 162.528C60.6615 169.44 62.4215 172.896 65.9415 172.896ZM86.4293 172.8C86.4293 170.048 87.2613 165.376 88.9253 158.784C90.5893 152.128 91.4213 148.064 91.4213 146.592C91.4213 145.056 90.2693 143.04 87.9653 140.544L88.0613 139.296C92.4133 138.4 98.1413 137.952 105.245 137.952C105.565 138.784 105.725 140.288 105.725 142.464C105.725 144.64 104.829 149.28 103.037 156.384C101.245 163.488 100.349 167.904 100.349 169.632C100.349 171.36 100.989 172.224 102.269 172.224C104.125 172.224 106.269 171.552 108.701 170.208C108.957 168.672 109.597 165.728 110.621 161.376C112.925 151.136 114.077 143.808 114.077 139.392C116.317 138.496 120.349 138.048 126.173 138.048H127.997C127.997 141.056 127.101 146.944 125.309 155.712C123.517 164.416 122.621 169.536 122.621 171.072C122.621 172.544 122.941 173.28 123.581 173.28C123.965 173.28 125.789 172.512 129.053 170.976L130.877 174.048C125.181 178.784 120.189 181.152 115.901 181.152C113.853 181.152 112.093 180.576 110.621 179.424C109.213 178.272 108.413 176.768 108.221 174.912C103.037 179.136 98.3333 181.248 94.1093 181.248C91.8693 181.248 90.0133 180.512 88.5413 179.04C87.1333 177.568 86.4293 175.488 86.4293 172.8ZM136.16 180.288H134.336C134.336 177.28 135.232 171.52 137.023 163.008C138.88 154.496 139.808 149.664 139.808 148.512C139.808 146.4 138.912 144.16 137.12 141.792L136.256 140.64L136.352 139.392C139.808 138.432 145.344 137.952 152.96 137.952C153.792 139.04 154.24 141.024 154.304 143.904C159.872 139.616 164.576 137.472 168.416 137.472C170.72 137.472 172.544 138.272 173.888 139.872C175.296 141.472 176 143.488 176 145.92C176 148.288 175.264 152.416 173.792 158.304C172.32 164.192 171.584 168.16 171.584 170.208C171.584 172.192 171.84 173.184 172.352 173.184C172.736 173.184 174.08 172.576 176.384 171.36L177.536 170.784L179.264 174.144C178.688 174.656 177.92 175.296 176.96 176.064C176 176.832 174.208 177.888 171.584 179.232C169.024 180.512 166.72 181.152 164.672 181.152C160 181.152 157.664 178.496 157.664 173.184C157.664 170.944 158.368 166.816 159.776 160.8C161.248 154.784 161.984 150.912 161.984 149.184C161.984 147.456 161.44 146.592 160.352 146.592C158.496 146.592 156.224 147.392 153.536 148.992C153.344 150.08 152.704 152.96 151.616 157.632C149.376 167.68 148.256 174.784 148.256 178.944C146.016 179.84 141.984 180.288 136.16 180.288ZM227.822 174.144C222.382 178.816 217.582 181.152 213.422 181.152C209.326 181.152 206.958 179.104 206.318 175.008C204.398 176.928 202.254 178.432 199.886 179.52C197.518 180.608 195.438 181.152 193.646 181.152C190.574 181.152 187.95 179.808 185.773 177.12C183.598 174.432 182.51 170.272 182.51 164.64C182.51 156.192 184.302 149.568 187.886 144.768C191.47 139.904 195.502 137.472 199.982 137.472C204.526 137.472 208.334 138.496 211.406 140.544C213.39 130.176 214.382 122.016 214.382 116.064L213.902 112.032C218.702 110.368 223.406 109.536 228.014 109.536C228.526 110.624 228.781 111.872 228.781 113.28C228.781 117.952 227.374 127.456 224.558 141.792C221.742 156.064 220.334 165.76 220.334 170.88C220.334 172.416 220.686 173.184 221.39 173.184C221.774 173.184 222.99 172.576 225.038 171.36L225.998 170.784L227.822 174.144ZM204.686 143.136C202.446 143.136 200.494 145.344 198.83 149.76C197.23 154.176 196.43 158.56 196.43 162.912C196.43 167.2 196.718 169.952 197.294 171.168C197.934 172.384 198.862 172.992 200.078 172.992C202.19 172.992 204.27 172.128 206.318 170.4C206.51 167.84 207.95 159.328 210.638 144.864C208.462 143.712 206.478 143.136 204.686 143.136Z" fill="#141414"/>
</svg>
