<svg width="607" height="156" viewBox="0 0 607 156" fill="none" xmlns="http://www.w3.org/2000/svg">
<path d="M400.23 39.5994L385.124 39.4224" stroke="black" stroke-width="4" stroke-linecap="round" stroke-linejoin="round"/>
<path d="M400.442 21.4722L385.336 21.2952" stroke="black" stroke-width="4" stroke-linecap="round" stroke-linejoin="round"/>
<path d="M366.572 75.4643L351.466 75.2873" stroke="black" stroke-width="4" stroke-linecap="round" stroke-linejoin="round"/>
<path d="M366.785 57.3372L351.679 57.1602" stroke="black" stroke-width="4" stroke-linecap="round" stroke-linejoin="round"/>
<path d="M366.997 39.21L351.891 39.033" stroke="black" stroke-width="4" stroke-linecap="round" stroke-linejoin="round"/>
<path d="M367.209 21.0829L352.103 20.9059" stroke="black" stroke-width="4" stroke-linecap="round" stroke-linejoin="round"/>
<path d="M367.422 2.95572L352.316 2.77874" stroke="black" stroke-width="4" stroke-linecap="round" stroke-linejoin="round"/>
<path d="M333.339 75.075L318.233 74.898" stroke="black" stroke-width="4" stroke-linecap="round" stroke-linejoin="round"/>
<path d="M300.106 74.6856L285 74.5086" stroke="black" stroke-width="4" stroke-linecap="round" stroke-linejoin="round"/>
<path d="M333.551 56.9478L318.445 56.7708" stroke="black" stroke-width="4" stroke-linecap="round" stroke-linejoin="round"/>
<path d="M300.318 56.5584L285.212 56.3814" stroke="black" stroke-width="4" stroke-linecap="round" stroke-linejoin="round"/>
<path d="M333.764 38.8206L318.658 38.6437" stroke="black" stroke-width="4" stroke-linecap="round" stroke-linejoin="round"/>
<rect x="325" y="65" width="67" height="69" fill="white"/>
<path d="M306 28L322 44H386C390.243 44 394.313 45.6857 397.314 48.6863C400.314 51.6868 402 55.7565 402 60V140C402 148.8 394.8 156 386 156H258C253.757 156 249.687 154.314 246.686 151.314C243.686 148.313 242 144.243 242 140V44C242 35.12 249.12 28 258 28H306ZM378 68H350V100.48L346 100C341.757 100 337.687 101.686 334.686 104.686C331.686 107.687 330 111.757 330 116C330 120.243 331.686 124.313 334.686 127.314C337.687 130.314 341.757 132 346 132C354.88 132 362 124.88 362 116V84H378V68Z" fill="#54B9B5"/>
<path d="M417.048 132.384H415.224C415.48 129.504 417.176 121.056 420.312 107.04C423.448 92.96 425.4 82.432 426.168 75.456C426.168 74.432 425.816 73.216 425.112 71.808C424.472 70.336 423.8 69.152 423.096 68.256L422.136 66.912L422.424 65.472C426.008 64.384 432.184 63.84 440.952 63.84C441.784 65.376 442.2 67.584 442.2 70.464C442.2 73.28 440.6 81.28 437.4 94.464H437.88C443.576 94.464 447.64 92.32 450.072 88.032C452.568 83.68 454.424 76.384 455.64 66.144C460.184 64.608 464.952 63.84 469.944 63.84C470.072 64.288 470.104 65.376 470.04 67.104C470.04 68.832 469.72 71.072 469.08 73.824C468.44 76.512 467.48 79.36 466.2 82.368C464.984 85.376 463.16 88.224 460.728 90.912C458.36 93.536 455.608 95.648 452.472 97.248C456.184 109.92 459.384 118.176 462.072 122.016C463.224 123.616 464.12 124.416 464.76 124.416C465.912 124.416 467.704 123.84 470.136 122.688L471.288 122.112L473.496 125.664C471.128 127.84 468.376 129.632 465.24 131.04C462.168 132.448 459.256 133.152 456.504 133.152C453.752 133.152 451.576 132.064 449.976 129.888C448.44 127.712 447.128 125.024 446.04 121.824C445.016 118.56 443.928 114.72 442.776 110.304C441.624 105.888 440.856 102.56 440.472 100.32C439.896 100.384 438.392 100.416 435.96 100.416C432.184 116.416 430.296 126.432 430.296 130.464C427.8 131.744 423.384 132.384 417.048 132.384Z" fill="black"/>
<path d="M482.21 133.152C480.034 133.152 478.21 132.416 476.738 130.944C475.33 129.472 474.626 127.424 474.626 124.8C474.626 122.112 476.194 113.632 479.33 99.36C482.53 85.024 484.13 74.688 484.13 68.352L483.554 64.128C488.546 62.4 493.218 61.536 497.57 61.536C498.21 62.432 498.53 64 498.53 66.24C498.53 71.36 496.898 81.28 493.634 96C490.434 110.656 488.834 119.2 488.834 121.632C488.834 124 489.122 125.184 489.698 125.184L496.418 122.784L498.146 126.144C495.97 127.872 493.314 129.472 490.178 130.944C487.106 132.416 484.45 133.152 482.21 133.152ZM520.19 95.424C520.19 98.112 519.326 102.752 517.598 109.344C515.87 115.872 515.006 120.16 515.006 122.208C515.006 124.192 515.294 125.184 515.87 125.184C516.254 125.184 517.726 124.576 520.286 123.36L521.438 122.784L523.07 126.144C522.494 126.656 521.726 127.296 520.766 128.064C519.806 128.832 518.014 129.888 515.39 131.232C512.766 132.512 510.334 133.152 508.094 133.152C505.854 133.152 504.094 132.48 502.814 131.136C501.534 129.728 500.894 127.872 500.894 125.568C500.894 123.2 501.694 119.04 503.294 113.088C504.894 107.072 505.694 103.168 505.694 101.376C505.694 98.688 504.862 96.16 503.198 93.792L502.334 92.64L502.43 91.392C505.822 90.432 511.326 89.952 518.942 89.952C519.774 90.912 520.19 92.736 520.19 95.424ZM509.246 79.488C507.966 78.208 507.326 76.512 507.326 74.4C507.326 72.288 508.19 70.432 509.918 68.832C511.71 67.232 513.758 66.432 516.062 66.432C518.366 66.432 520.158 67.072 521.438 68.352C522.718 69.632 523.358 71.328 523.358 73.44C523.358 75.488 522.43 77.312 520.574 78.912C518.782 80.512 516.766 81.312 514.526 81.312C512.286 81.312 510.526 80.704 509.246 79.488ZM523.69 153.504C523.37 152.736 523.21 151.04 523.21 148.416C523.21 145.792 524.458 138.752 526.954 127.296C529.45 115.776 530.698 106.912 530.698 100.704C530.698 99.488 530.41 98.208 529.834 96.864C529.258 95.456 528.65 94.368 528.01 93.6L527.146 92.544L527.242 91.296C530.25 90.336 535.562 89.856 543.178 89.856C543.882 91.2 544.33 93.088 544.522 95.52C549.45 91.488 553.546 89.472 556.81 89.472C560.138 89.472 562.794 90.848 564.778 93.6C566.826 96.352 567.85 100.384 567.85 105.696C567.85 114.976 566.154 121.888 562.762 126.432C559.37 130.912 555.082 133.152 549.898 133.152C547.21 133.152 544.97 132.768 543.178 132L542.218 131.616L542.89 127.872C543.466 128 544.138 128.064 544.906 128.064C546.57 128.064 548.01 127.296 549.226 125.76C550.506 124.224 551.466 122.272 552.106 119.904C553.386 115.168 554.026 110.784 554.026 106.752C554.026 100.992 552.842 98.112 550.474 98.112C548.618 98.112 546.634 98.848 544.522 100.32C544.266 104.8 542.954 112.64 540.586 123.84C538.218 135.04 537.034 144.064 537.034 150.912C533.578 152.32 529.13 153.184 523.69 153.504ZM601.888 119.424C601.888 123.456 600.096 126.752 596.512 129.312C592.992 131.872 588.96 133.152 584.416 133.152C579.872 133.152 576.256 132.192 573.568 130.272C570.944 128.352 569.632 126.656 569.632 125.184C569.632 124.288 570.752 122.848 572.992 120.864C575.232 118.816 577.12 117.568 578.656 117.12C581.856 119.488 584.48 123.232 586.528 128.352C588.896 128.16 590.08 127.04 590.08 124.992C590.08 122.048 587.488 117.888 582.304 112.512C577.12 107.072 574.528 102.752 574.528 99.552C574.528 96.352 575.968 93.888 578.848 92.16C581.728 90.368 585.184 89.472 589.216 89.472C593.312 89.472 596.384 90.208 598.432 91.68C600.48 93.088 601.504 95.04 601.504 97.536C601.504 99.968 599.552 103.36 595.648 107.712C596.096 108.16 596.672 108.768 597.376 109.536C598.08 110.24 599.008 111.616 600.16 113.664C601.312 115.712 601.888 117.632 601.888 119.424ZM592.672 104.352C595.36 102.048 596.704 99.776 596.704 97.536C596.704 95.296 595.168 94.176 592.096 94.176C590.624 94.176 589.408 94.496 588.448 95.136C587.488 95.712 587.008 96.384 587.008 97.152C587.008 98.56 588.416 100.544 591.232 103.104L592.672 104.352Z" fill="#141414"/>
<path d="M41.472 113.184C41.472 119.328 39.136 124.192 34.464 127.776C29.792 131.36 24.128 133.152 17.472 133.152C12.992 133.152 9.28 132.032 6.336 129.792C3.456 127.488 1.856 125.536 1.536 123.936C2.24 121.824 3.744 119.456 6.048 116.832C8.352 114.208 10.432 112.608 12.288 112.032C15.552 114.144 18.592 118.848 21.408 126.144C25.568 126.016 27.648 123.744 27.648 119.328C27.648 116.896 26.656 113.92 24.672 110.4C22.752 106.816 20.64 103.488 18.336 100.416C16.032 97.28 13.888 93.792 11.904 89.952C9.984 86.048 9.024 82.592 9.024 79.584C9.024 74.72 10.976 70.88 14.88 68.064C18.848 65.248 23.296 63.84 28.224 63.84C33.152 63.84 36.96 64.896 39.648 67.008C42.4 69.12 43.776 71.52 43.776 74.208C43.776 76.896 42.752 79.648 40.704 82.464C38.656 85.28 36.608 87.52 34.56 89.184L31.488 91.68C32.256 92.704 33.184 94.016 34.272 95.616C35.36 97.216 36.832 99.936 38.688 103.776C40.544 107.616 41.472 110.752 41.472 113.184ZM34.08 81.696C34.976 80.864 35.776 79.872 36.48 78.72C37.184 77.504 37.536 76.256 37.536 74.976C37.536 73.632 36.768 72.512 35.232 71.616C33.696 70.72 31.84 70.272 29.664 70.272C27.552 70.272 25.76 70.784 24.288 71.808C22.88 72.768 22.176 73.952 22.176 75.36C22.176 76.704 22.624 78.304 23.52 80.16C24.48 81.952 25.408 83.456 26.304 84.672L27.744 86.496C28.384 86.176 29.376 85.504 30.72 84.48C32.128 83.456 33.248 82.528 34.08 81.696ZM60.7575 133.152C56.3415 133.152 52.8855 131.616 50.3895 128.544C47.8935 125.408 46.6455 121.056 46.6455 115.488C46.6455 108.384 48.5335 102.272 52.3095 97.152C56.1495 92.032 61.4295 89.472 68.1495 89.472L71.6055 89.664C72.6935 89.088 73.9095 88.8 75.2535 88.8C80.3095 88.8 82.8375 93.568 82.8375 103.104C85.4615 102.976 88.1175 102.624 90.8055 102.048L92.3415 101.664L92.9175 105.408C90.8055 106.304 87.9575 107.104 84.3735 107.808L82.4535 108.192C81.2375 114.912 78.7735 120.768 75.0615 125.76C71.3495 130.688 66.5815 133.152 60.7575 133.152ZM65.9415 124.896C68.6295 124.896 71.0295 123.168 73.1415 119.712C75.3175 116.256 76.8215 112.608 77.6535 108.768C70.8055 108.768 67.3815 106.208 67.3815 101.088C67.3815 99.04 67.7975 97.12 68.6295 95.328L69.1095 94.368C68.8535 94.24 68.5335 94.176 68.1495 94.176C67.7655 94.176 67.4775 94.24 67.2855 94.368C65.6855 95.392 64.1815 97.792 62.7735 101.568C61.3655 105.344 60.6615 109.664 60.6615 114.528C60.6615 121.44 62.4215 124.896 65.9415 124.896ZM86.4293 124.8C86.4293 122.048 87.2613 117.376 88.9253 110.784C90.5893 104.128 91.4213 100.064 91.4213 98.592C91.4213 97.056 90.2693 95.04 87.9653 92.544L88.0613 91.296C92.4133 90.4 98.1413 89.952 105.245 89.952C105.565 90.784 105.725 92.288 105.725 94.464C105.725 96.64 104.829 101.28 103.037 108.384C101.245 115.488 100.349 119.904 100.349 121.632C100.349 123.36 100.989 124.224 102.269 124.224C104.125 124.224 106.269 123.552 108.701 122.208C108.957 120.672 109.597 117.728 110.621 113.376C112.925 103.136 114.077 95.808 114.077 91.392C116.317 90.496 120.349 90.048 126.173 90.048H127.997C127.997 93.056 127.101 98.944 125.309 107.712C123.517 116.416 122.621 121.536 122.621 123.072C122.621 124.544 122.941 125.28 123.581 125.28C123.965 125.28 125.789 124.512 129.053 122.976L130.877 126.048C125.181 130.784 120.189 133.152 115.901 133.152C113.853 133.152 112.093 132.576 110.621 131.424C109.213 130.272 108.413 128.768 108.221 126.912C103.037 131.136 98.3333 133.248 94.1093 133.248C91.8693 133.248 90.0133 132.512 88.5413 131.04C87.1333 129.568 86.4293 127.488 86.4293 124.8ZM136.16 132.288H134.336C134.336 129.28 135.232 123.52 137.023 115.008C138.88 106.496 139.808 101.664 139.808 100.512C139.808 98.4 138.912 96.16 137.12 93.792L136.256 92.64L136.352 91.392C139.808 90.432 145.344 89.952 152.96 89.952C153.792 91.04 154.24 93.024 154.304 95.904C159.872 91.616 164.576 89.472 168.416 89.472C170.72 89.472 172.544 90.272 173.888 91.872C175.296 93.472 176 95.488 176 97.92C176 100.288 175.264 104.416 173.792 110.304C172.32 116.192 171.584 120.16 171.584 122.208C171.584 124.192 171.84 125.184 172.352 125.184C172.736 125.184 174.08 124.576 176.384 123.36L177.536 122.784L179.264 126.144C178.688 126.656 177.92 127.296 176.96 128.064C176 128.832 174.208 129.888 171.584 131.232C169.024 132.512 166.72 133.152 164.672 133.152C160 133.152 157.664 130.496 157.664 125.184C157.664 122.944 158.368 118.816 159.776 112.8C161.248 106.784 161.984 102.912 161.984 101.184C161.984 99.456 161.44 98.592 160.352 98.592C158.496 98.592 156.224 99.392 153.536 100.992C153.344 102.08 152.704 104.96 151.616 109.632C149.376 119.68 148.256 126.784 148.256 130.944C146.016 131.84 141.984 132.288 136.16 132.288ZM227.822 126.144C222.382 130.816 217.582 133.152 213.422 133.152C209.326 133.152 206.958 131.104 206.318 127.008C204.398 128.928 202.254 130.432 199.886 131.52C197.518 132.608 195.438 133.152 193.646 133.152C190.574 133.152 187.95 131.808 185.773 129.12C183.598 126.432 182.51 122.272 182.51 116.64C182.51 108.192 184.302 101.568 187.886 96.768C191.47 91.904 195.502 89.472 199.982 89.472C204.526 89.472 208.334 90.496 211.406 92.544C213.39 82.176 214.382 74.016 214.382 68.064L213.902 64.032C218.702 62.368 223.406 61.536 228.014 61.536C228.526 62.624 228.781 63.872 228.781 65.28C228.781 69.952 227.374 79.456 224.558 93.792C221.742 108.064 220.334 117.76 220.334 122.88C220.334 124.416 220.686 125.184 221.39 125.184C221.774 125.184 222.99 124.576 225.038 123.36L225.998 122.784L227.822 126.144ZM204.686 95.136C202.446 95.136 200.494 97.344 198.83 101.76C197.23 106.176 196.43 110.56 196.43 114.912C196.43 119.2 196.718 121.952 197.294 123.168C197.934 124.384 198.862 124.992 200.078 124.992C202.19 124.992 204.27 124.128 206.318 122.4C206.51 119.84 207.95 111.328 210.638 96.864C208.462 95.712 206.478 95.136 204.686 95.136Z" fill="#141414"/>
</svg>
