<svg width="1922" height="565" viewBox="0 0 1922 565" fill="none" xmlns="http://www.w3.org/2000/svg">
<path d="M1 5H1918V564H1V5Z" fill="white"/>
<path d="M1543 562.211L1579.97 562.211" stroke="#88CECC" stroke-width="4" stroke-linecap="round" stroke-linejoin="round"/>
<path d="M1543 517.842L1579.97 517.842" stroke="#88CECC" stroke-width="4" stroke-linecap="round" stroke-linejoin="round"/>
<path d="M1543 473.474L1579.97 473.474" stroke="#88CECC" stroke-width="4" stroke-linecap="round" stroke-linejoin="round"/>
<path d="M1543 429.105L1579.97 429.105" stroke="#88CECC" stroke-width="4" stroke-linecap="round" stroke-linejoin="round"/>
<path d="M1624.34 562.211L1661.32 562.211" stroke="#88CECC" stroke-width="4" stroke-linecap="round" stroke-linejoin="round"/>
<path d="M1624.34 517.842L1661.32 517.842" stroke="#88CECC" stroke-width="4" stroke-linecap="round" stroke-linejoin="round"/>
<path d="M1624.34 473.474L1661.32 473.474" stroke="#88CECC" stroke-width="4" stroke-linecap="round" stroke-linejoin="round"/>
<path d="M1624.34 429.105L1661.32 429.105" stroke="#88CECC" stroke-width="4" stroke-linecap="round" stroke-linejoin="round"/>
<path d="M1624.34 384.737L1661.32 384.737" stroke="#88CECC" stroke-width="4" stroke-linecap="round" stroke-linejoin="round"/>
<path d="M1624.34 340.368L1661.32 340.368" stroke="#88CECC" stroke-width="4" stroke-linecap="round" stroke-linejoin="round"/>
<path d="M1624.34 296L1661.32 296" stroke="#88CECC" stroke-width="4" stroke-linecap="round" stroke-linejoin="round"/>
<path d="M1705.68 562.211L1742.66 562.211" stroke="#88CECC" stroke-width="4" stroke-linecap="round" stroke-linejoin="round"/>
<path d="M1787.03 562.211L1824 562.211" stroke="#88CECC" stroke-width="4" stroke-linecap="round" stroke-linejoin="round"/>
<path d="M1705.68 517.842L1742.66 517.842" stroke="#88CECC" stroke-width="4" stroke-linecap="round" stroke-linejoin="round"/>
<path d="M1787.03 517.842L1824 517.842" stroke="#88CECC" stroke-width="4" stroke-linecap="round" stroke-linejoin="round"/>
<path d="M1705.68 473.474L1742.66 473.474" stroke="#88CECC" stroke-width="4" stroke-linecap="round" stroke-linejoin="round"/>
<path d="M1787.03 473.474L1824 473.474" stroke="#88CECC" stroke-width="4" stroke-linecap="round" stroke-linejoin="round"/>
<path d="M1787.03 429.105L1824 429.105" stroke="#88CECC" stroke-width="4" stroke-linecap="round" stroke-linejoin="round"/>
<path d="M1787.03 384.737L1824 384.737" stroke="#88CECC" stroke-width="4" stroke-linecap="round" stroke-linejoin="round"/>
<path d="M1375 562.211L1411.97 562.211" stroke="#E2E700" stroke-opacity="0.51" stroke-width="4" stroke-linecap="round" stroke-linejoin="round"/>
<path d="M1375 517.842L1411.97 517.842" stroke="#E2E700" stroke-opacity="0.51" stroke-width="4" stroke-linecap="round" stroke-linejoin="round"/>
<path d="M1375 473.474L1411.97 473.474" stroke="#E2E700" stroke-opacity="0.51" stroke-width="4" stroke-linecap="round" stroke-linejoin="round"/>
<path d="M1375 429.105L1411.97 429.105" stroke="#E2E700" stroke-opacity="0.51" stroke-width="4" stroke-linecap="round" stroke-linejoin="round"/>
<path d="M1456.34 562.211L1493.32 562.211" stroke="#E2E700" stroke-opacity="0.51" stroke-width="4" stroke-linecap="round" stroke-linejoin="round"/>
<path d="M1456.34 517.842L1493.32 517.842" stroke="#E2E700" stroke-opacity="0.51" stroke-width="4" stroke-linecap="round" stroke-linejoin="round"/>
<path d="M1456.34 473.474L1493.32 473.474" stroke="#E2E700" stroke-opacity="0.51" stroke-width="4" stroke-linecap="round" stroke-linejoin="round"/>
<path d="M1456.34 429.105L1493.32 429.105" stroke="#E2E700" stroke-opacity="0.51" stroke-width="4" stroke-linecap="round" stroke-linejoin="round"/>
<path d="M1456.34 384.737L1493.32 384.737" stroke="#E2E700" stroke-opacity="0.51" stroke-width="4" stroke-linecap="round" stroke-linejoin="round"/>
<path d="M1456.34 340.368L1493.32 340.368" stroke="#E2E700" stroke-opacity="0.51" stroke-width="4" stroke-linecap="round" stroke-linejoin="round"/>
<path d="M1456.34 296L1493.32 296" stroke="#E2E700" stroke-opacity="0.51" stroke-width="4" stroke-linecap="round" stroke-linejoin="round"/>
<path d="M1537.68 562.211L1574.66 562.211" stroke="#E2E700" stroke-opacity="0.51" stroke-width="4" stroke-linecap="round" stroke-linejoin="round"/>
<path d="M1619.03 562.211L1656 562.211" stroke="#E2E700" stroke-opacity="0.51" stroke-width="4" stroke-linecap="round" stroke-linejoin="round"/>
<path d="M1537.68 517.842L1574.66 517.842" stroke="#E2E700" stroke-opacity="0.51" stroke-width="4" stroke-linecap="round" stroke-linejoin="round"/>
<path d="M1619.03 517.842L1656 517.842" stroke="#E2E700" stroke-opacity="0.51" stroke-width="4" stroke-linecap="round" stroke-linejoin="round"/>
<path d="M1537.68 473.474L1574.66 473.474" stroke="#E2E700" stroke-opacity="0.51" stroke-width="4" stroke-linecap="round" stroke-linejoin="round"/>
<path d="M1619.03 473.474L1656 473.474" stroke="#E2E700" stroke-opacity="0.51" stroke-width="4" stroke-linecap="round" stroke-linejoin="round"/>
<path d="M1619.03 429.105L1656 429.105" stroke="#E2E700" stroke-opacity="0.51" stroke-width="4" stroke-linecap="round" stroke-linejoin="round"/>
<path d="M1619.03 384.737L1656 384.737" stroke="#E2E700" stroke-opacity="0.51" stroke-width="4" stroke-linecap="round" stroke-linejoin="round"/>
<path d="M1363 562.211L1399.97 562.211" stroke="#525252" stroke-width="4" stroke-linecap="round" stroke-linejoin="round"/>
<path d="M1363 517.842L1399.97 517.842" stroke="#525252" stroke-width="4" stroke-linecap="round" stroke-linejoin="round"/>
<path d="M1363 473.474L1399.97 473.474" stroke="#525252" stroke-width="4" stroke-linecap="round" stroke-linejoin="round"/>
<path d="M1363 429.105L1399.97 429.105" stroke="#525252" stroke-width="4" stroke-linecap="round" stroke-linejoin="round"/>
<path d="M1444.34 562.211L1481.32 562.211" stroke="#525252" stroke-width="4" stroke-linecap="round" stroke-linejoin="round"/>
<path d="M1444.34 517.842L1481.32 517.842" stroke="#525252" stroke-width="4" stroke-linecap="round" stroke-linejoin="round"/>
<path d="M1444.34 473.474L1481.32 473.474" stroke="#525252" stroke-width="4" stroke-linecap="round" stroke-linejoin="round"/>
<path d="M1444.34 429.105L1481.32 429.105" stroke="#525252" stroke-width="4" stroke-linecap="round" stroke-linejoin="round"/>
<path d="M1444.34 384.737L1481.32 384.737" stroke="#525252" stroke-width="4" stroke-linecap="round" stroke-linejoin="round"/>
<path d="M1444.34 340.368L1481.32 340.368" stroke="#525252" stroke-width="4" stroke-linecap="round" stroke-linejoin="round"/>
<path d="M1444.34 296L1481.32 296" stroke="#525252" stroke-width="4" stroke-linecap="round" stroke-linejoin="round"/>
<path d="M1525.68 562.211L1562.66 562.211" stroke="#525252" stroke-width="4" stroke-linecap="round" stroke-linejoin="round"/>
<path d="M1607.03 562.211L1644 562.211" stroke="#525252" stroke-width="4" stroke-linecap="round" stroke-linejoin="round"/>
<path d="M1525.68 517.842L1562.66 517.842" stroke="#525252" stroke-width="4" stroke-linecap="round" stroke-linejoin="round"/>
<path d="M1607.03 517.842L1644 517.842" stroke="#525252" stroke-width="4" stroke-linecap="round" stroke-linejoin="round"/>
<path d="M1525.68 473.474L1562.66 473.474" stroke="#525252" stroke-width="4" stroke-linecap="round" stroke-linejoin="round"/>
<path d="M1607.03 473.474L1644 473.474" stroke="#525252" stroke-width="4" stroke-linecap="round" stroke-linejoin="round"/>
<path d="M1607.03 429.105L1644 429.105" stroke="#525252" stroke-width="4" stroke-linecap="round" stroke-linejoin="round"/>
<path d="M1607.03 384.737L1644 384.737" stroke="#525252" stroke-width="4" stroke-linecap="round" stroke-linejoin="round"/>
<path d="M1341 562.211L1377.97 562.211" stroke="#88CECC" stroke-width="4" stroke-linecap="round" stroke-linejoin="round"/>
<path d="M1341 517.842L1377.97 517.842" stroke="#88CECC" stroke-width="4" stroke-linecap="round" stroke-linejoin="round"/>
<path d="M1341 473.474L1377.97 473.474" stroke="#88CECC" stroke-width="4" stroke-linecap="round" stroke-linejoin="round"/>
<path d="M1341 429.105L1377.97 429.105" stroke="#88CECC" stroke-width="4" stroke-linecap="round" stroke-linejoin="round"/>
<path d="M1422.34 562.211L1459.32 562.211" stroke="#88CECC" stroke-width="4" stroke-linecap="round" stroke-linejoin="round"/>
<path d="M1422.34 517.842L1459.32 517.842" stroke="#88CECC" stroke-width="4" stroke-linecap="round" stroke-linejoin="round"/>
<path d="M1422.34 473.474L1459.32 473.474" stroke="#88CECC" stroke-width="4" stroke-linecap="round" stroke-linejoin="round"/>
<path d="M1422.34 429.105L1459.32 429.105" stroke="#88CECC" stroke-width="4" stroke-linecap="round" stroke-linejoin="round"/>
<path d="M1422.34 384.737L1459.32 384.737" stroke="#88CECC" stroke-width="4" stroke-linecap="round" stroke-linejoin="round"/>
<path d="M1422.34 340.368L1459.32 340.368" stroke="#88CECC" stroke-width="4" stroke-linecap="round" stroke-linejoin="round"/>
<path d="M1422.34 296L1459.32 296" stroke="#88CECC" stroke-width="4" stroke-linecap="round" stroke-linejoin="round"/>
<path d="M1503.69 562.211L1540.66 562.211" stroke="#88CECC" stroke-width="4" stroke-linecap="round" stroke-linejoin="round"/>
<path d="M1585.03 562.211L1622 562.211" stroke="#88CECC" stroke-width="4" stroke-linecap="round" stroke-linejoin="round"/>
<path d="M1503.69 517.842L1540.66 517.842" stroke="#88CECC" stroke-width="4" stroke-linecap="round" stroke-linejoin="round"/>
<path d="M1585.03 517.842L1622 517.842" stroke="#88CECC" stroke-width="4" stroke-linecap="round" stroke-linejoin="round"/>
<path d="M1503.69 473.474L1540.66 473.474" stroke="#88CECC" stroke-width="4" stroke-linecap="round" stroke-linejoin="round"/>
<path d="M1585.03 473.474L1622 473.474" stroke="#88CECC" stroke-width="4" stroke-linecap="round" stroke-linejoin="round"/>
<path d="M1585.03 429.105L1622 429.105" stroke="#88CECC" stroke-width="4" stroke-linecap="round" stroke-linejoin="round"/>
<path d="M1585.03 384.737L1622 384.737" stroke="#88CECC" stroke-width="4" stroke-linecap="round" stroke-linejoin="round"/>
<path d="M1742.5 522C1599.73 522 1484 406.266 1484 263.5C1484 120.734 1599.73 5 1742.5 5C1808.79 5 1873.75 25.9786 1919.5 67C1919.5 132 1919.5 181.521 1919.5 258C1919.5 334.479 1918.88 399.5 1919.5 451.898C1873.25 495.369 1810.98 522 1742.5 522Z" fill="#54B9B5" fill-opacity="0.7"/>
<path d="M1921.88 559.633C1847.78 559.962 1776.58 530.808 1723.95 478.587C1671.32 426.365 1641.57 355.353 1641.24 281.173C1640.91 206.992 1670.03 135.72 1722.2 83.0341C1774.36 30.3485 1845.3 0.565616 1919.4 0.23742L1920.64 279.935L1921.88 559.633Z" fill="#E2E700" fill-opacity="0.51"/>
<path d="M1791.07 467.329L1784.18 536.749" stroke="#54B9B5" stroke-width="5" stroke-linecap="round" stroke-linejoin="round"/>
<path d="M1750.42 535.91C1750.74 532.71 1752.31 529.768 1754.8 527.73C1757.29 525.692 1760.48 524.726 1763.68 525.044L1785.13 527.174L1783.71 541.441C1783.39 544.641 1781.82 547.583 1779.33 549.621C1776.84 551.659 1773.65 552.625 1770.45 552.307L1761.07 551.375C1757.87 551.057 1754.92 549.482 1752.89 546.994C1750.85 544.507 1749.88 541.312 1750.2 538.112L1750.42 535.91Z" fill="#313234" stroke="#54B9B5" stroke-width="5" stroke-linejoin="round"/>
<path d="M1789.16 486.637L1819.27 497.016L1821.2 477.605L1791.07 467.329L1789.16 486.637Z" stroke="#54B9B5" stroke-width="5" stroke-linecap="round" stroke-linejoin="round"/>
<path d="M1607.5 216.561L1590.34 342.691" stroke="#54B9B5" stroke-width="10" stroke-linecap="round" stroke-linejoin="round"/>
<path d="M1528.84 338.931C1529.63 333.117 1532.69 327.855 1537.36 324.304C1542.03 320.752 1547.92 319.201 1553.74 319.992L1592.71 325.294L1589.18 351.216C1588.39 357.029 1585.32 362.291 1580.65 365.842C1575.98 369.394 1570.09 370.945 1564.28 370.154L1547.23 367.835C1541.42 367.044 1536.15 363.976 1532.6 359.306C1529.05 354.635 1527.5 348.746 1528.29 342.932L1528.84 338.931Z" fill="#313234" stroke="#54B9B5" stroke-width="10" stroke-linejoin="round"/>
<path d="M1602.73 251.642L1656.95 272.557L1661.75 237.288L1607.5 216.561L1602.73 251.642Z" stroke="#54B9B5" stroke-width="10" stroke-linecap="round" stroke-linejoin="round"/>
<path d="M1744.47 68.8426L1732.37 156.764" stroke="#54B9B5" stroke-width="10" stroke-linecap="round" stroke-linejoin="round"/>
<path d="M1689.49 154.075C1690.04 150.022 1692.19 146.357 1695.45 143.886C1698.71 141.415 1702.82 140.34 1706.87 140.898L1734.03 144.637L1731.55 162.706C1730.99 166.759 1728.84 170.424 1725.58 172.895C1722.32 175.366 1718.22 176.441 1714.16 175.883L1702.28 174.247C1698.23 173.69 1694.56 171.545 1692.09 168.285C1689.62 165.025 1688.54 160.916 1689.1 156.864L1689.49 154.075Z" fill="#313234" stroke="#54B9B5" stroke-width="10" stroke-linejoin="round"/>
<path d="M1741.1 93.2969L1778.89 107.938L1782.27 83.3538L1744.47 68.8426L1741.1 93.2969Z" stroke="#54B9B5" stroke-width="10" stroke-linecap="round" stroke-linejoin="round"/>
<path d="M1653.45 214.772C1653.45 210.701 1655.07 206.797 1657.95 203.918C1660.83 201.039 1664.73 199.421 1668.81 199.421H1701.7V214.334C1701.7 218.521 1700.04 222.538 1697.08 225.499C1694.11 228.46 1690.1 230.123 1685.91 230.123H1668.81C1664.73 230.123 1660.83 228.506 1657.95 225.627C1655.07 222.748 1653.45 218.844 1653.45 214.772ZM1548.19 232.316C1548.19 228.245 1549.81 224.34 1552.69 221.462C1555.57 218.583 1559.47 216.965 1563.54 216.965H1592.05V231.878C1592.05 233.951 1591.64 236.004 1590.85 237.92C1590.06 239.836 1588.89 241.576 1587.43 243.043C1585.96 244.509 1584.22 245.672 1582.3 246.465C1580.39 247.259 1578.34 247.667 1576.26 247.667H1563.54C1559.47 247.667 1555.57 246.05 1552.69 243.171C1549.81 240.292 1548.19 236.388 1548.19 232.316V232.316Z" fill="#313234" stroke="#54B9B5" stroke-width="20" stroke-linejoin="round"/>
<path d="M1592.05 230.123V107.316L1701.7 81V211.229M1592.05 142.597L1701.7 116.636L1592.05 142.597Z" stroke="#54B9B5" stroke-width="20" stroke-linecap="round" stroke-linejoin="round"/>
<path d="M1700.54 477.105C1700.54 473.034 1702.16 469.129 1705.04 466.25C1707.92 463.372 1711.82 461.754 1715.89 461.754H1748.79V476.667C1748.79 480.854 1747.12 484.87 1744.16 487.831C1741.2 490.793 1737.18 492.456 1733 492.456H1715.89C1711.82 492.456 1707.92 490.839 1705.04 487.96C1702.16 485.081 1700.54 481.176 1700.54 477.105ZM1595.28 494.649C1595.28 490.578 1596.89 486.673 1599.77 483.794C1602.65 480.915 1606.56 479.298 1610.63 479.298H1639.14V494.21C1639.14 496.284 1638.73 498.337 1637.94 500.253C1637.14 502.169 1635.98 503.909 1634.51 505.375C1633.05 506.842 1631.31 508.005 1629.39 508.798C1627.47 509.592 1625.42 510 1623.35 510H1610.63C1606.56 510 1602.65 508.383 1599.77 505.504C1596.89 502.625 1595.28 498.72 1595.28 494.649V494.649Z" fill="#313234" stroke="#54B9B5" stroke-width="10" stroke-linejoin="round"/>
<path d="M1639.14 492.456V369.649L1748.79 343.333V473.561M1639.14 404.929L1748.79 378.969L1639.14 404.929Z" stroke="#54B9B5" stroke-width="10" stroke-linecap="round" stroke-linejoin="round"/>
<path d="M1566.61 110.857L1556.25 183.276" stroke="#54B9B5" stroke-width="10" stroke-linecap="round" stroke-linejoin="round"/>
<path d="M1520.92 180.873C1521.39 177.535 1523.18 174.523 1525.88 172.501C1528.57 170.478 1531.96 169.61 1535.3 170.087L1557.68 173.287L1555.55 188.171C1555.07 191.509 1553.29 194.52 1550.59 196.543C1547.89 198.566 1544.5 199.434 1541.16 198.957L1531.37 197.557C1528.04 197.079 1525.02 195.295 1523 192.597C1520.98 189.899 1520.11 186.508 1520.59 183.17L1520.92 180.873Z" fill="#313234" stroke="#54B9B5" stroke-width="10" stroke-linejoin="round"/>
<path d="M1563.73 130.999L1594.81 143.232L1597.7 122.982L1566.61 110.857L1563.73 130.999Z" stroke="#54B9B5" stroke-width="10" stroke-linecap="round" stroke-linejoin="round"/>
</svg>
