<svg width="160" height="128" viewBox="0 0 160 128" fill="none" xmlns="http://www.w3.org/2000/svg">
<rect x="83" y="37" width="67" height="69" fill="white"/>
<path d="M64 0L80 16H144C148.243 16 152.313 17.6857 155.314 20.6863C158.314 23.6869 160 27.7565 160 32V112C160 120.8 152.8 128 144 128H16C11.7565 128 7.68687 126.314 4.68629 123.314C1.68571 120.313 0 116.243 0 112V16C0 7.12 7.12 0 16 0H64ZM136 40H108V72.48L104 72C99.7565 72 95.6869 73.6857 92.6863 76.6863C89.6857 79.6869 88 83.7565 88 88C88 92.2435 89.6857 96.3131 92.6863 99.3137C95.6869 102.314 99.7565 104 104 104C112.88 104 120 96.88 120 88V56H136V40Z" fill="#54B9B5"/>
</svg>
