<svg width="498" height="278" viewBox="0 0 498 278" fill="none" xmlns="http://www.w3.org/2000/svg">
<path d="M250.767 169.962C250.767 171.218 249.752 172.237 248.496 172.237C247.239 172.237 246.22 171.218 246.22 169.962C246.22 168.707 247.239 167.689 248.496 167.689C249.752 167.689 250.767 168.707 250.767 169.962Z" fill="#C4C4C4"/>
<path d="M244.946 172.752C244.946 174.008 243.931 175.026 242.674 175.026C241.418 175.026 240.399 174.008 240.399 172.752C240.399 171.496 241.418 170.478 242.674 170.478C243.931 170.478 244.946 171.496 244.946 172.752Z" fill="#C4C4C4"/>
<path d="M239.098 175.511C239.098 176.767 238.079 177.785 236.823 177.785C235.566 177.785 234.547 176.767 234.547 175.511C234.547 174.255 235.566 173.237 236.823 173.237C238.079 173.237 239.098 174.255 239.098 175.511Z" fill="#C4C4C4"/>
<path d="M255.573 170.933L233.003 181.135L230.851 187.562L197.711 219.169C193.314 218.865 189.01 211.771 196.062 205.905C201.199 201.645 188.481 196.157 180.323 214C172.169 231.842 169.184 222.049 153.767 233.009C138.35 243.969 151.297 260.174 157.466 266.357C160.059 268.721 162.789 270.93 165.634 272.981C173.214 277.819 183.251 280.698 190.814 270.057C199.484 257.855 195.074 251.412 200.697 247.819C206.324 244.226 211.871 244.318 214.341 239.179C216.81 234.04 213.327 230.811 210.522 232.705C205.292 236.283 201.23 233.145 200.031 230.932L236.214 192.913L242.644 190.776C249.117 177.254 255 180.923 257.937 176.815C260.878 172.706 255.573 170.933 255.573 170.933ZM209.371 236.768C209.508 237.253 207.704 239.8 204.383 241.089C202.156 241.914 200.022 242.955 198.002 244.196C194.254 246.591 193.636 249.911 192.966 253.413C192.089 258.379 190.144 263.096 187.268 267.239C185.584 269.828 182.294 270.922 181.037 267.433C179.886 264.249 182.554 263.418 181.037 258.87C177.823 249.214 161.497 248.001 164.954 238.497C169.245 226.703 181.037 232.069 183.145 225.642C185.253 219.214 188.512 218.062 190.726 220.275C192.935 222.489 191.859 228.764 197.151 235.283C199.563 238.299 204.123 240.861 209.371 236.768Z" fill="#54B9B5"/>
<path d="M193.204 239.94C193.875 240.609 193.875 241.694 193.204 242.363L191.339 244.228C190.673 244.897 189.588 244.897 188.918 244.228L180.623 235.931C179.953 235.262 179.953 234.178 180.623 233.509L182.488 231.644C183.154 230.975 184.239 230.975 184.909 231.644L193.204 239.94Z" fill="#C4C4C4"/>
<path d="M185.703 247.444C186.369 248.113 186.369 249.198 185.703 249.866L183.838 251.732C183.167 252.401 182.083 252.401 181.412 251.732L173.117 243.435C172.447 242.766 172.447 241.682 173.117 241.013L174.983 239.147C175.653 238.478 176.738 238.478 177.404 239.147L185.703 247.444Z" fill="#C4C4C4"/>
<path d="M151.059 0H47.9779C46.3021 0 44.9438 1.35736 44.9438 3.0318V106.113C44.9438 107.787 46.3021 109.145 47.9779 109.145H151.059C152.73 109.145 154.089 107.787 154.089 106.113V3.0318C154.089 1.35736 152.73 0 151.059 0ZM118.964 68.2153H122.254V102.748C122.249 102.858 122.249 102.97 122.254 103.081H102.55V68.2153H105.836C107.353 68.2153 108.614 66.5479 108.614 64.4713V6.0636H116.19V64.4558C116.19 66.5329 117.434 68.2153 118.964 68.2153ZM80.0686 68.2153C81.5812 68.2153 82.8424 66.5479 82.8424 64.4713V6.0636H90.423V64.4558C90.423 66.5329 91.6622 68.2003 93.1969 68.2003H96.4866V103.081H76.7788V68.2153H80.0686ZM51.0074 6.0636H64.6516V64.4558C64.6516 66.5329 65.8952 68.2003 67.4255 68.2003H70.7152V103.081H51.0074V6.0636ZM148.025 103.081H128.317C128.326 102.97 128.326 102.858 128.317 102.748V68.2153H131.607C133.124 68.2153 134.381 66.5479 134.381 64.4713V6.0636H148.025V103.081Z" fill="#C4C4C4"/>
<path d="M173.602 151.847C159.879 151.847 148.651 140.619 148.651 126.895C148.651 113.171 159.879 101.942 173.602 101.942C187.326 101.942 198.554 113.171 198.554 126.895C198.554 140.619 187.326 151.847 173.602 151.847ZM173.602 59.1661C136.171 59.1661 105.875 89.4656 105.875 126.895C105.875 164.323 136.171 194.623 173.602 194.623C211.034 194.623 241.329 164.323 241.329 126.895C241.329 89.4656 211.034 59.1661 173.602 59.1661Z" fill="#C4C4C4"/>
<path d="M173.603 134.024C169.682 134.024 166.472 130.816 166.472 126.894C166.472 122.973 169.682 119.765 173.603 119.765C177.523 119.765 180.733 122.973 180.733 126.894C180.733 130.816 177.523 134.024 173.603 134.024ZM173.603 109.071C163.799 109.071 155.778 117.092 155.778 126.894C155.778 136.697 163.799 144.718 173.603 144.718C183.406 144.718 191.427 136.697 191.427 126.894C191.427 117.092 183.406 109.071 173.603 109.071Z" fill="#74C6C3"/>
<path d="M324.31 78.5511C312.487 79.7639 300.964 81.2795 290.354 83.402V86.4338C300.964 84.3113 312.487 82.4923 324.31 81.5829V78.5511Z" fill="#C4C4C4"/>
<path d="M410.109 96.7419C404.046 96.1356 397.678 95.5292 391.314 95.2258C391.918 96.1356 392.827 97.3483 393.435 98.2576C398.286 98.561 403.137 98.864 407.684 99.4703C407.988 98.561 408.896 97.6513 410.109 96.7419Z" fill="#C4C4C4"/>
<path d="M342.501 80.0669C349.169 79.7639 356.145 79.4605 363.117 79.4605V76.4287C356.145 76.4287 349.169 76.7321 342.501 77.0351V80.0669Z" fill="#C4C4C4"/>
<path d="M324.31 60.3604C312.487 61.5731 300.964 63.0888 290.354 65.2112V68.243C300.964 66.1205 312.487 64.3015 324.31 63.3922V60.3604Z" fill="#C4C4C4"/>
<path d="M397.074 113.72C397.074 114.629 397.074 115.842 397.074 116.752C399.803 117.055 402.229 117.055 404.954 117.358C404.954 117.055 404.654 116.752 404.654 116.448C404.35 115.842 404.046 114.933 404.046 114.023C401.32 114.326 399.195 114.023 397.074 113.72Z" fill="#C4C4C4"/>
<path d="M290.354 104.625C293.688 104.018 297.326 103.412 300.66 102.805C300.66 101.896 300.66 100.683 300.964 99.7737C297.326 100.38 293.688 100.986 290.354 101.593V104.625Z" fill="#C4C4C4"/>
<path d="M426.783 65.5142V62.4824C406.775 59.754 386.763 58.2379 366.756 58.2379C358.571 58.2379 350.382 58.5413 342.501 58.8443V61.8761C350.382 61.5731 358.571 61.2697 366.756 61.2697C386.763 61.2697 406.775 62.7858 426.783 65.5142Z" fill="#C4C4C4"/>
<path d="M444.978 65.5142V68.546C462.56 71.8812 479.843 77.3384 495.908 85.2211L497.425 82.4922C480.751 74.6096 463.165 68.8494 444.978 65.5142Z" fill="#C4C4C4"/>
<path d="M363.117 94.6194C356.145 94.6194 349.169 94.9228 342.501 95.2257V96.1355C342.501 96.4385 342.501 96.7419 342.501 96.7419C342.501 97.3482 342.501 97.6512 342.501 98.2575C349.169 97.9546 356.145 97.6512 363.117 97.6512V94.6194Z" fill="#C4C4C4"/>
<path d="M438.91 118.874C438.002 119.784 437.093 120.693 435.881 121.299C459.526 125.544 480.447 131.607 495.908 139.793L497.425 137.065C478.63 128.273 459.227 122.209 438.91 118.874Z" fill="#C4C4C4"/>
<path d="M497.121 155.559C471.958 142.522 433.151 134.033 390.401 131.911C387.676 133.73 384.038 133.73 381.308 132.214V134.639C427.392 136.155 469.533 144.947 495.908 158.591L497.121 155.559Z" fill="#C4C4C4"/>
<path d="M342.501 134.639C343.11 133.427 344.018 132.517 344.927 131.607C300.964 133.73 261.249 142.522 235.782 155.862L237.299 158.591C261.553 145.554 300.056 137.065 342.501 134.639Z" fill="#C4C4C4"/>
<path d="M444.978 101.896V104.928C462.56 108.263 479.843 113.72 495.908 121.603L497.425 118.874C480.751 110.991 463.165 105.231 444.978 101.896Z" fill="#C4C4C4"/>
<path d="M444.978 83.705V86.7368C462.56 90.072 479.843 95.5292 495.908 103.412L497.425 100.683C480.751 92.8004 463.165 87.0402 444.978 83.705Z" fill="#C4C4C4"/>
<path d="M363.117 115.842V112.81C352.507 112.81 342.197 113.417 332.191 114.023C330.983 114.629 329.765 115.539 328.557 115.842C325.523 117.358 321.885 117.964 318.551 117.964C315.821 117.964 312.787 117.358 310.062 116.145C300.36 117.358 291.263 119.177 282.474 120.996C280.652 122.512 278.531 123.725 276.106 124.634C272.772 126.15 269.434 126.756 266.1 126.756C264.583 126.756 263.37 126.756 261.853 126.453C252.76 129.182 243.967 132.82 235.782 137.065L237.299 139.793C265.496 125.241 312.487 116.448 363.117 115.842Z" fill="#C4C4C4"/>
<path d="M426.783 83.705V80.6732C411.626 78.5511 396.465 77.035 381.308 76.7321V79.4605V79.7639C396.465 80.0668 411.626 81.5829 426.783 83.705Z" fill="#C4C4C4"/>
<path d="M260.341 94.3164C260.945 94.013 261.853 93.4067 262.766 93.1037C265.496 91.891 268.221 91.2846 270.951 90.9812C271.255 90.9812 271.859 90.6783 272.163 90.6783V87.6465C259.428 90.6783 247.3 95.2258 235.782 101.289L237.299 104.018C244.575 100.077 252.151 96.7419 260.341 94.3164Z" fill="#C4C4C4"/>
<path d="M272.163 72.4875V69.4557C259.428 72.4875 247.3 77.035 235.782 83.0986L237.299 85.8274C248.213 80.0668 260.036 75.5193 272.163 72.4875Z" fill="#C4C4C4"/>
<path d="M249.426 116.448C249.122 115.539 248.818 114.326 248.818 113.417C244.271 115.236 240.024 117.055 235.782 119.177L237.299 121.906C240.937 120.087 244.875 118.268 249.426 116.448Z" fill="#C4C4C4"/>
<path d="M355.841 131.304C347.956 134.639 343.714 141.916 346.139 147.676C348.26 151.617 352.507 154.043 357.054 153.74C359.783 153.74 362.209 153.133 364.634 152.224C370.089 150.405 374.336 145.251 374.94 139.49V139.187V95.2259C375.849 96.4386 376.762 97.3483 377.67 98.5611C381.612 102.199 384.038 107.05 384.642 112.204C384.946 115.842 384.338 119.48 382.825 122.815C381.917 124.331 382.521 126.15 383.734 127.06C384.946 127.969 387.067 127.363 387.976 126.15C390.401 121.603 391.314 116.752 390.706 111.598C389.797 105.231 387.067 99.1674 382.217 94.6195C378.274 90.6784 375.549 85.5241 374.94 80.0669V74.913C374.94 73.0939 373.728 71.8812 371.911 71.8812C370.089 71.8812 368.877 73.0939 368.877 74.913V130.698C364.939 128.879 360.083 129.182 355.841 131.304ZM368.877 137.974C369.79 140.4 367.364 144.341 362.509 146.463C357.358 148.586 352.811 147.676 351.899 145.251C350.99 142.825 353.416 138.884 358.266 136.762C360.083 136.155 361.905 135.549 363.722 135.549C365.847 135.549 367.664 136.155 368.877 137.974Z" fill="#AAD759"/>
<path d="M420.724 120.39C423.449 120.39 425.875 119.784 428.3 118.874C433.759 117.055 438.002 111.901 438.61 106.14V105.837V41.5632C438.61 39.7441 437.398 38.5314 435.576 38.5314C433.759 38.5314 432.547 39.7441 432.547 41.5632V97.3483C428.3 95.8322 423.449 96.1356 419.207 97.9546C411.322 101.289 407.08 108.566 409.505 114.326C411.93 118.267 416.173 120.693 420.724 120.39ZM421.932 103.412C423.753 102.806 425.575 102.199 427.392 102.199C429.513 101.896 431.634 102.806 432.547 104.625C433.455 107.05 431.03 110.991 426.179 113.114C421.328 115.236 416.477 114.326 415.569 111.901C414.656 109.475 416.781 105.534 421.932 103.412Z" fill="#3EB2AC"/>
<path d="M318.247 112.204C320.976 112.204 323.402 111.598 325.827 110.688C332.495 107.959 336.438 102.199 336.133 97.0449C336.133 96.7419 336.133 96.7419 336.133 96.4385V40.6534L277.923 54.2968V98.2576C273.68 96.7419 268.83 97.0449 264.583 98.864C256.702 102.199 252.456 109.475 254.881 115.236C256.398 118.267 259.428 120.39 262.766 120.996C263.674 121.299 264.887 121.299 265.796 121.299C268.525 121.299 270.951 120.693 273.376 119.784C278.831 117.965 283.078 112.81 283.682 107.05V106.747V59.1476L330.374 48.5361V89.1622C326.127 87.6465 321.281 87.6465 317.034 89.7686C313.7 91.2847 310.666 93.4067 308.545 96.4385C306.424 99.1674 306.12 102.806 307.332 106.14C309.453 110.082 313.7 112.507 318.247 112.204ZM271.555 114.023C269.434 114.933 266.704 115.236 264.279 114.933C262.766 114.629 261.553 114.023 260.945 112.81C260.036 110.385 262.462 106.444 267.313 104.321C269.129 103.715 270.951 103.108 272.772 103.108C274.893 102.806 277.014 103.715 277.923 105.534C278.831 107.959 276.406 111.901 271.555 114.023ZM313.7 99.7737C315.213 97.6513 317.034 96.1356 319.459 95.2258C321.281 94.6195 323.098 94.0131 324.915 94.0131C327.04 93.7101 329.161 94.6195 330.07 96.4385C330.983 98.864 328.557 102.806 323.702 104.928C318.855 107.05 314.004 106.14 313.092 103.715C312.787 102.502 312.787 100.986 313.7 99.7737Z" fill="#49B6B0"/>
<path d="M480.279 19.6518C478.948 18.7804 477.832 17.6135 477.02 16.2407V13.4515C477.02 11.777 475.662 10.4197 473.991 10.4197C472.315 10.4197 470.957 11.777 470.957 13.4515V59.2164C468.024 58.6996 465.008 58.988 462.225 60.0503C455.646 62.4304 451.615 67.918 453.132 72.3138C454.645 76.71 461.348 78.3774 467.927 75.937C472.474 74.2696 475.839 71.1011 476.915 67.8422V35.8718C477.325 36.1924 477.757 36.4861 478.202 36.7511C488.314 42.8147 482.749 52.3948 487.692 52.4406C494.043 52.4861 494.303 29.0047 480.279 19.6518Z" fill="#E2E700" fill-opacity="0.51"/>
<path d="M51.9777 175.669C51.9777 177.344 46.2095 178.701 39.092 178.701C31.9744 178.701 26.2063 177.344 26.2063 175.669C26.2063 173.995 31.9744 172.638 39.092 172.638C46.2095 172.638 51.9777 173.995 51.9777 175.669Z" fill="#C4C4C4"/>
<path d="M98.9694 175.669C98.9694 177.344 93.2013 178.701 86.0837 178.701C78.9706 178.701 73.2024 177.344 73.2024 175.669C73.2024 173.995 78.9706 172.638 86.0837 172.638C93.2013 172.638 98.9694 173.995 98.9694 175.669Z" fill="#C4C4C4"/>
<path d="M130.306 181.248C129.592 177.549 122.633 175.715 114.069 176.7V166.529H108.005V177.746C99.0311 179.99 92.65 184.538 93.4085 188.358C94.0744 191.814 100.2 193.633 108.005 193.102V229.332L95.8781 241.46L100.169 245.75L108.005 237.912V245.355H114.069V237.882L121.967 245.78L126.196 241.49L114.069 229.362V192.299C123.876 190.222 131.109 185.356 130.306 181.248Z" fill="#C4C4C4"/>
<path d="M21.5979 137.727V127.115H15.5343V136.726C7.31872 135.953 0.75677 137.817 0.0600075 141.44C-0.716133 145.503 6.12364 150.293 15.5343 152.491V229.241L3.28808 241.49L7.56123 245.78L15.5343 237.776V245.355H21.5979V237.988L29.3902 245.78L33.7251 241.49L21.5979 229.362V153.462C29.7562 154.189 36.2564 152.34 36.9532 148.717C37.7293 144.685 30.969 139.91 21.5979 137.727Z" fill="#C4C4C4"/>
<path d="M79.2042 219.585C79.2042 228.794 71.7383 236.26 62.5305 236.26C53.3182 236.26 45.8523 228.794 45.8523 219.585C45.8523 210.376 53.3182 202.91 62.5305 202.91C71.7383 202.91 79.2042 210.376 79.2042 219.585Z" fill="#74C6C3" fill-opacity="0.68"/>
<path d="M86.0838 169.56C89.938 169.56 95.4856 169.909 98.9121 171.592V161.981C98.6211 160.207 92.9544 158.798 86.0264 158.798C79.0985 158.798 73.4582 160.207 73.1407 161.981V163.497H64.0431V189.267H61.0135V163.497H51.9159V161.981C51.6293 160.116 45.9581 158.615 39.0302 158.615C32.1023 158.615 26.4664 160.116 26.1489 161.981V171.652C29.5578 169.955 35.2421 169.56 39.0919 169.56C42.9418 169.56 48.4895 169.909 51.9159 171.562V169.56H54.9499V190.267C38.7347 194.454 28.9889 210.99 33.1739 227.202C37.3589 243.415 53.896 253.164 70.1067 248.978C86.3219 244.792 96.0677 228.256 91.8827 212.043C89.1265 201.364 80.7875 193.025 70.1067 190.267V169.56H73.1407V171.683C76.5495 169.97 82.2339 169.56 86.0838 169.56ZM83.7509 219.585C83.7509 231.306 74.2476 240.808 62.5305 240.808C50.809 240.808 41.3057 231.306 41.3057 219.585C41.3057 207.864 50.809 198.363 62.5305 198.363C74.2476 198.363 83.7509 207.864 83.7509 219.585Z" fill="#C4C4C4"/>
</svg>
