<svg width="556" height="396" viewBox="0 0 556 396" fill="none" xmlns="http://www.w3.org/2000/svg">
<path d="M316.802 64.7686L279.828 64.7341" stroke="#88CECC" stroke-width="4" stroke-linecap="round" stroke-linejoin="round"/>
<path d="M316.76 109.137L279.787 109.102" stroke="#88CECC" stroke-width="4" stroke-linecap="round" stroke-linejoin="round"/>
<path d="M316.719 153.505L279.745 153.471" stroke="#88CECC" stroke-width="4" stroke-linecap="round" stroke-linejoin="round"/>
<path d="M316.677 197.874L279.704 197.839" stroke="#88CECC" stroke-width="4" stroke-linecap="round" stroke-linejoin="round"/>
<path d="M235.459 64.6926L198.486 64.6581" stroke="#88CECC" stroke-width="4" stroke-linecap="round" stroke-linejoin="round"/>
<path d="M235.418 109.061L198.444 109.027" stroke="#88CECC" stroke-width="4" stroke-linecap="round" stroke-linejoin="round"/>
<path d="M235.377 153.429L198.403 153.395" stroke="#88CECC" stroke-width="4" stroke-linecap="round" stroke-linejoin="round"/>
<path d="M235.335 197.798L198.362 197.763" stroke="#88CECC" stroke-width="4" stroke-linecap="round" stroke-linejoin="round"/>
<path d="M235.294 242.166L198.32 242.132" stroke="#88CECC" stroke-width="4" stroke-linecap="round" stroke-linejoin="round"/>
<path d="M235.252 286.535L198.279 286.5" stroke="#88CECC" stroke-width="4" stroke-linecap="round" stroke-linejoin="round"/>
<path d="M235.211 330.903L198.237 330.869" stroke="#88CECC" stroke-width="4" stroke-linecap="round" stroke-linejoin="round"/>
<path d="M154.118 64.6168L117.144 64.5823" stroke="#88CECC" stroke-width="4" stroke-linecap="round" stroke-linejoin="round"/>
<path d="M72.7754 64.5409L35.8017 64.5064" stroke="#88CECC" stroke-width="4" stroke-linecap="round" stroke-linejoin="round"/>
<path d="M154.076 108.985L117.103 108.951" stroke="#88CECC" stroke-width="4" stroke-linecap="round" stroke-linejoin="round"/>
<path d="M72.7339 108.909L35.7602 108.875" stroke="#88CECC" stroke-width="4" stroke-linecap="round" stroke-linejoin="round"/>
<path d="M154.035 153.354L117.061 153.319" stroke="#88CECC" stroke-width="4" stroke-linecap="round" stroke-linejoin="round"/>
<path d="M72.6924 153.278L35.7187 153.243" stroke="#88CECC" stroke-width="4" stroke-linecap="round" stroke-linejoin="round"/>
<path d="M72.6514 197.646L35.6777 197.612" stroke="#88CECC" stroke-width="4" stroke-linecap="round" stroke-linejoin="round"/>
<path d="M72.6099 242.015L35.6362 241.98" stroke="#88CECC" stroke-width="4" stroke-linecap="round" stroke-linejoin="round"/>
<path d="M484.801 64.9253L447.828 64.8908" stroke="#E2E700" stroke-opacity="0.51" stroke-width="4" stroke-linecap="round" stroke-linejoin="round"/>
<path d="M484.76 109.294L447.786 109.259" stroke="#E2E700" stroke-opacity="0.51" stroke-width="4" stroke-linecap="round" stroke-linejoin="round"/>
<path d="M484.718 153.662L447.745 153.628" stroke="#E2E700" stroke-opacity="0.51" stroke-width="4" stroke-linecap="round" stroke-linejoin="round"/>
<path d="M484.677 198.031L447.703 197.996" stroke="#E2E700" stroke-opacity="0.51" stroke-width="4" stroke-linecap="round" stroke-linejoin="round"/>
<path d="M403.459 64.8494L366.485 64.8149" stroke="#E2E700" stroke-opacity="0.51" stroke-width="4" stroke-linecap="round" stroke-linejoin="round"/>
<path d="M403.417 109.218L366.444 109.183" stroke="#E2E700" stroke-opacity="0.51" stroke-width="4" stroke-linecap="round" stroke-linejoin="round"/>
<path d="M403.376 153.586L366.403 153.552" stroke="#E2E700" stroke-opacity="0.51" stroke-width="4" stroke-linecap="round" stroke-linejoin="round"/>
<path d="M403.335 197.955L366.361 197.92" stroke="#E2E700" stroke-opacity="0.51" stroke-width="4" stroke-linecap="round" stroke-linejoin="round"/>
<path d="M403.293 242.323L366.32 242.288" stroke="#E2E700" stroke-opacity="0.51" stroke-width="4" stroke-linecap="round" stroke-linejoin="round"/>
<path d="M403.252 286.691L366.278 286.657" stroke="#E2E700" stroke-opacity="0.51" stroke-width="4" stroke-linecap="round" stroke-linejoin="round"/>
<path d="M403.21 331.06L366.237 331.025" stroke="#E2E700" stroke-opacity="0.51" stroke-width="4" stroke-linecap="round" stroke-linejoin="round"/>
<path d="M322.117 64.7736L285.144 64.7391" stroke="#E2E700" stroke-opacity="0.51" stroke-width="4" stroke-linecap="round" stroke-linejoin="round"/>
<path d="M240.775 64.6976L203.801 64.6631" stroke="#E2E700" stroke-opacity="0.51" stroke-width="4" stroke-linecap="round" stroke-linejoin="round"/>
<path d="M322.076 109.142L285.102 109.107" stroke="#E2E700" stroke-opacity="0.51" stroke-width="4" stroke-linecap="round" stroke-linejoin="round"/>
<path d="M240.733 109.066L203.76 109.032" stroke="#E2E700" stroke-opacity="0.51" stroke-width="4" stroke-linecap="round" stroke-linejoin="round"/>
<path d="M322.034 153.51L285.061 153.476" stroke="#E2E700" stroke-opacity="0.51" stroke-width="4" stroke-linecap="round" stroke-linejoin="round"/>
<path d="M240.692 153.434L203.718 153.4" stroke="#E2E700" stroke-opacity="0.51" stroke-width="4" stroke-linecap="round" stroke-linejoin="round"/>
<path d="M240.651 197.803L203.677 197.768" stroke="#E2E700" stroke-opacity="0.51" stroke-width="4" stroke-linecap="round" stroke-linejoin="round"/>
<path d="M240.609 242.171L203.636 242.137" stroke="#E2E700" stroke-opacity="0.51" stroke-width="4" stroke-linecap="round" stroke-linejoin="round"/>
<path d="M496.801 64.9365L459.828 64.902" stroke="#525252" stroke-width="4" stroke-linecap="round" stroke-linejoin="round"/>
<path d="M496.76 109.305L459.786 109.27" stroke="#525252" stroke-width="4" stroke-linecap="round" stroke-linejoin="round"/>
<path d="M496.718 153.673L459.745 153.639" stroke="#525252" stroke-width="4" stroke-linecap="round" stroke-linejoin="round"/>
<path d="M496.677 198.042L459.703 198.007" stroke="#525252" stroke-width="4" stroke-linecap="round" stroke-linejoin="round"/>
<path d="M415.459 64.8606L378.485 64.8261" stroke="#525252" stroke-width="4" stroke-linecap="round" stroke-linejoin="round"/>
<path d="M415.417 109.229L378.444 109.195" stroke="#525252" stroke-width="4" stroke-linecap="round" stroke-linejoin="round"/>
<path d="M415.376 153.597L378.403 153.563" stroke="#525252" stroke-width="4" stroke-linecap="round" stroke-linejoin="round"/>
<path d="M415.335 197.966L378.361 197.931" stroke="#525252" stroke-width="4" stroke-linecap="round" stroke-linejoin="round"/>
<path d="M415.293 242.334L378.32 242.3" stroke="#525252" stroke-width="4" stroke-linecap="round" stroke-linejoin="round"/>
<path d="M415.252 286.703L378.278 286.668" stroke="#525252" stroke-width="4" stroke-linecap="round" stroke-linejoin="round"/>
<path d="M415.21 331.071L378.237 331.037" stroke="#525252" stroke-width="4" stroke-linecap="round" stroke-linejoin="round"/>
<path d="M334.117 64.7848L297.144 64.7503" stroke="#525252" stroke-width="4" stroke-linecap="round" stroke-linejoin="round"/>
<path d="M252.775 64.7089L215.801 64.6744" stroke="#525252" stroke-width="4" stroke-linecap="round" stroke-linejoin="round"/>
<path d="M334.076 109.153L297.102 109.119" stroke="#525252" stroke-width="4" stroke-linecap="round" stroke-linejoin="round"/>
<path d="M252.733 109.077L215.76 109.043" stroke="#525252" stroke-width="4" stroke-linecap="round" stroke-linejoin="round"/>
<path d="M334.034 153.522L297.061 153.487" stroke="#525252" stroke-width="4" stroke-linecap="round" stroke-linejoin="round"/>
<path d="M252.692 153.446L215.718 153.411" stroke="#525252" stroke-width="4" stroke-linecap="round" stroke-linejoin="round"/>
<path d="M252.651 197.814L215.677 197.78" stroke="#525252" stroke-width="4" stroke-linecap="round" stroke-linejoin="round"/>
<path d="M252.609 242.182L215.636 242.148" stroke="#525252" stroke-width="4" stroke-linecap="round" stroke-linejoin="round"/>
<path d="M518.801 64.957L481.827 64.9225" stroke="#88CECC" stroke-width="4" stroke-linecap="round" stroke-linejoin="round"/>
<path d="M518.759 109.325L481.786 109.291" stroke="#88CECC" stroke-width="4" stroke-linecap="round" stroke-linejoin="round"/>
<path d="M518.718 153.694L481.744 153.659" stroke="#88CECC" stroke-width="4" stroke-linecap="round" stroke-linejoin="round"/>
<path d="M518.676 198.062L481.703 198.028" stroke="#88CECC" stroke-width="4" stroke-linecap="round" stroke-linejoin="round"/>
<path d="M437.458 64.8811L400.485 64.8466" stroke="#88CECC" stroke-width="4" stroke-linecap="round" stroke-linejoin="round"/>
<path d="M437.417 109.25L400.443 109.215" stroke="#88CECC" stroke-width="4" stroke-linecap="round" stroke-linejoin="round"/>
<path d="M437.376 153.618L400.402 153.583" stroke="#88CECC" stroke-width="4" stroke-linecap="round" stroke-linejoin="round"/>
<path d="M437.334 197.986L400.361 197.952" stroke="#88CECC" stroke-width="4" stroke-linecap="round" stroke-linejoin="round"/>
<path d="M437.293 242.355L400.319 242.32" stroke="#88CECC" stroke-width="4" stroke-linecap="round" stroke-linejoin="round"/>
<path d="M437.251 286.723L400.278 286.689" stroke="#88CECC" stroke-width="4" stroke-linecap="round" stroke-linejoin="round"/>
<path d="M437.21 331.092L400.236 331.057" stroke="#88CECC" stroke-width="4" stroke-linecap="round" stroke-linejoin="round"/>
<path d="M356.117 64.8053L319.143 64.7708" stroke="#88CECC" stroke-width="4" stroke-linecap="round" stroke-linejoin="round"/>
<path d="M274.774 64.7294L237.801 64.6949" stroke="#88CECC" stroke-width="4" stroke-linecap="round" stroke-linejoin="round"/>
<path d="M356.075 109.174L319.102 109.139" stroke="#88CECC" stroke-width="4" stroke-linecap="round" stroke-linejoin="round"/>
<path d="M274.733 109.098L237.759 109.063" stroke="#88CECC" stroke-width="4" stroke-linecap="round" stroke-linejoin="round"/>
<path d="M356.034 153.542L319.06 153.508" stroke="#88CECC" stroke-width="4" stroke-linecap="round" stroke-linejoin="round"/>
<path d="M274.691 153.466L237.718 153.432" stroke="#88CECC" stroke-width="4" stroke-linecap="round" stroke-linejoin="round"/>
<path d="M274.65 197.835L237.677 197.8" stroke="#88CECC" stroke-width="4" stroke-linecap="round" stroke-linejoin="round"/>
<path d="M274.609 242.203L237.635 242.169" stroke="#88CECC" stroke-width="4" stroke-linecap="round" stroke-linejoin="round"/>
<path d="M502.264 230.772C502.264 226.701 503.881 222.797 506.76 219.918C509.639 217.039 513.543 215.422 517.614 215.422H550.509V230.334C550.509 234.521 548.846 238.538 545.885 241.499C542.924 244.46 538.907 246.123 534.72 246.123H517.614C513.543 246.123 509.639 244.506 506.76 241.627C503.881 238.748 502.264 234.844 502.264 230.772ZM397 248.316C397 244.245 398.617 240.34 401.496 237.462C404.375 234.583 408.28 232.965 412.351 232.965H440.86V247.878C440.86 249.951 440.451 252.004 439.658 253.92C438.864 255.836 437.701 257.576 436.235 259.043C434.769 260.509 433.028 261.672 431.113 262.465C429.197 263.259 427.144 263.667 425.07 263.667H412.351C408.28 263.667 404.375 262.05 401.496 259.171C398.617 256.292 397 252.388 397 248.316V248.316Z" fill="#313234" stroke="#54B9B5" stroke-width="10" stroke-linejoin="round"/>
<path d="M440.86 246.123V123.316L550.509 97V227.229M440.86 158.597L550.509 132.636L440.86 158.597Z" stroke="#54B9B5" stroke-width="10" stroke-linecap="round" stroke-linejoin="round"/>
<path d="M320.607 105.857L310.249 178.276" stroke="#54B9B5" stroke-width="10" stroke-linecap="round" stroke-linejoin="round"/>
<path d="M274.916 175.873C275.394 172.535 277.178 169.523 279.875 167.501C282.573 165.478 285.964 164.61 289.302 165.087L311.677 168.287L309.549 183.171C309.071 186.509 307.288 189.52 304.59 191.543C301.892 193.566 298.501 194.434 295.163 193.957L285.374 192.557C282.036 192.079 279.024 190.295 277.001 187.597C274.978 184.899 274.11 181.508 274.588 178.17L274.916 175.873Z" fill="#313234" stroke="#54B9B5" stroke-width="10" stroke-linejoin="round"/>
<path d="M317.726 125.999L348.806 138.232L351.703 117.982L320.607 105.857L317.726 125.999Z" stroke="#54B9B5" stroke-width="10" stroke-linecap="round" stroke-linejoin="round"/>
</svg>
