<svg width="473" height="364" viewBox="0 0 473 364" fill="none" xmlns="http://www.w3.org/2000/svg">
<path d="M271.673 256.986C271.673 254.096 272.821 251.323 274.866 249.279C276.91 247.235 279.682 246.086 282.573 246.086H305.93V256.675C305.93 259.648 304.749 262.5 302.646 264.603C300.544 266.705 297.692 267.886 294.719 267.886H282.573C279.682 267.886 276.91 266.738 274.866 264.694C272.821 262.65 271.673 259.877 271.673 256.986ZM196.93 269.444C196.93 266.553 198.079 263.78 200.123 261.736C202.167 259.692 204.939 258.544 207.83 258.544H228.073V269.132C228.073 270.604 227.783 272.062 227.22 273.423C226.656 274.783 225.83 276.019 224.789 277.06C223.748 278.101 222.512 278.927 221.152 279.49C219.792 280.054 218.334 280.344 216.862 280.344H207.83C204.939 280.344 202.167 279.195 200.123 277.151C198.079 275.107 196.93 272.334 196.93 269.444Z" fill="#313234" stroke="#54B9B5" stroke-width="10" stroke-linejoin="round"/>
<path d="M228.073 267.886V180.686L305.93 162.001V254.47M228.073 205.738L305.93 187.304L228.073 205.738Z" stroke="#54B9B5" stroke-width="10" stroke-linecap="round" stroke-linejoin="round"/>
<path d="M234.728 54.7684L197.754 54.7339" stroke="#88CECC" stroke-width="4" stroke-linecap="round" stroke-linejoin="round"/>
<path d="M234.687 99.1368L197.713 99.1023" stroke="#88CECC" stroke-width="4" stroke-linecap="round" stroke-linejoin="round"/>
<path d="M234.645 143.505L197.671 143.471" stroke="#88CECC" stroke-width="4" stroke-linecap="round" stroke-linejoin="round"/>
<path d="M234.604 187.874L197.63 187.839" stroke="#88CECC" stroke-width="4" stroke-linecap="round" stroke-linejoin="round"/>
<path d="M153.386 54.6925L116.412 54.658" stroke="#88CECC" stroke-width="4" stroke-linecap="round" stroke-linejoin="round"/>
<path d="M153.345 99.0609L116.371 99.0264" stroke="#88CECC" stroke-width="4" stroke-linecap="round" stroke-linejoin="round"/>
<path d="M153.303 143.429L116.33 143.395" stroke="#88CECC" stroke-width="4" stroke-linecap="round" stroke-linejoin="round"/>
<path d="M153.262 187.798L116.288 187.763" stroke="#88CECC" stroke-width="4" stroke-linecap="round" stroke-linejoin="round"/>
<path d="M153.22 232.166L116.247 232.132" stroke="#88CECC" stroke-width="4" stroke-linecap="round" stroke-linejoin="round"/>
<path d="M153.179 276.535L116.205 276.5" stroke="#88CECC" stroke-width="4" stroke-linecap="round" stroke-linejoin="round"/>
<path d="M72.0439 54.6167L35.0703 54.5822" stroke="#88CECC" stroke-width="4" stroke-linecap="round" stroke-linejoin="round"/>
<path d="M402.728 54.9253L365.754 54.8908" stroke="#E2E700" stroke-opacity="0.51" stroke-width="4" stroke-linecap="round" stroke-linejoin="round"/>
<path d="M402.686 99.2937L365.712 99.2592" stroke="#E2E700" stroke-opacity="0.51" stroke-width="4" stroke-linecap="round" stroke-linejoin="round"/>
<path d="M402.645 143.662L365.671 143.628" stroke="#E2E700" stroke-opacity="0.51" stroke-width="4" stroke-linecap="round" stroke-linejoin="round"/>
<path d="M402.603 188.031L365.629 187.996" stroke="#E2E700" stroke-opacity="0.51" stroke-width="4" stroke-linecap="round" stroke-linejoin="round"/>
<path d="M321.385 54.8494L284.412 54.8149" stroke="#E2E700" stroke-opacity="0.51" stroke-width="4" stroke-linecap="round" stroke-linejoin="round"/>
<path d="M321.344 99.2178L284.37 99.1833" stroke="#E2E700" stroke-opacity="0.51" stroke-width="4" stroke-linecap="round" stroke-linejoin="round"/>
<path d="M321.303 143.586L284.329 143.552" stroke="#E2E700" stroke-opacity="0.51" stroke-width="4" stroke-linecap="round" stroke-linejoin="round"/>
<path d="M321.261 187.955L284.288 187.92" stroke="#E2E700" stroke-opacity="0.51" stroke-width="4" stroke-linecap="round" stroke-linejoin="round"/>
<path d="M321.22 232.323L284.246 232.288" stroke="#E2E700" stroke-opacity="0.51" stroke-width="4" stroke-linecap="round" stroke-linejoin="round"/>
<path d="M321.178 276.691L284.205 276.657" stroke="#E2E700" stroke-opacity="0.51" stroke-width="4" stroke-linecap="round" stroke-linejoin="round"/>
<path d="M321.137 321.06L284.163 321.025" stroke="#E2E700" stroke-opacity="0.51" stroke-width="4" stroke-linecap="round" stroke-linejoin="round"/>
<path d="M240.043 54.7736L203.07 54.7391" stroke="#E2E700" stroke-opacity="0.51" stroke-width="4" stroke-linecap="round" stroke-linejoin="round"/>
<path d="M158.701 54.6976L121.728 54.6631" stroke="#E2E700" stroke-opacity="0.51" stroke-width="4" stroke-linecap="round" stroke-linejoin="round"/>
<path d="M240.002 99.142L203.028 99.1075" stroke="#E2E700" stroke-opacity="0.51" stroke-width="4" stroke-linecap="round" stroke-linejoin="round"/>
<path d="M158.66 99.066L121.686 99.0315" stroke="#E2E700" stroke-opacity="0.51" stroke-width="4" stroke-linecap="round" stroke-linejoin="round"/>
<path d="M239.96 143.51L202.987 143.476" stroke="#E2E700" stroke-opacity="0.51" stroke-width="4" stroke-linecap="round" stroke-linejoin="round"/>
<path d="M158.618 143.434L121.644 143.4" stroke="#E2E700" stroke-opacity="0.51" stroke-width="4" stroke-linecap="round" stroke-linejoin="round"/>
<path d="M158.577 187.803L121.603 187.768" stroke="#E2E700" stroke-opacity="0.51" stroke-width="4" stroke-linecap="round" stroke-linejoin="round"/>
<path d="M158.536 232.171L121.562 232.137" stroke="#E2E700" stroke-opacity="0.51" stroke-width="4" stroke-linecap="round" stroke-linejoin="round"/>
<path d="M414.728 54.9364L377.754 54.9019" stroke="#525252" stroke-width="4" stroke-linecap="round" stroke-linejoin="round"/>
<path d="M414.686 99.3048L377.712 99.2703" stroke="#525252" stroke-width="4" stroke-linecap="round" stroke-linejoin="round"/>
<path d="M414.645 143.673L377.671 143.639" stroke="#525252" stroke-width="4" stroke-linecap="round" stroke-linejoin="round"/>
<path d="M414.603 188.042L377.629 188.007" stroke="#525252" stroke-width="4" stroke-linecap="round" stroke-linejoin="round"/>
<path d="M333.385 54.8605L296.412 54.826" stroke="#525252" stroke-width="4" stroke-linecap="round" stroke-linejoin="round"/>
<path d="M333.344 99.2289L296.37 99.1944" stroke="#525252" stroke-width="4" stroke-linecap="round" stroke-linejoin="round"/>
<path d="M333.303 143.597L296.329 143.563" stroke="#525252" stroke-width="4" stroke-linecap="round" stroke-linejoin="round"/>
<path d="M333.261 187.966L296.288 187.931" stroke="#525252" stroke-width="4" stroke-linecap="round" stroke-linejoin="round"/>
<path d="M333.22 232.334L296.246 232.3" stroke="#525252" stroke-width="4" stroke-linecap="round" stroke-linejoin="round"/>
<path d="M333.178 276.703L296.205 276.668" stroke="#525252" stroke-width="4" stroke-linecap="round" stroke-linejoin="round"/>
<path d="M333.137 321.071L296.163 321.036" stroke="#525252" stroke-width="4" stroke-linecap="round" stroke-linejoin="round"/>
<path d="M252.043 54.7847L215.07 54.7502" stroke="#525252" stroke-width="4" stroke-linecap="round" stroke-linejoin="round"/>
<path d="M170.701 54.7087L133.728 54.6742" stroke="#525252" stroke-width="4" stroke-linecap="round" stroke-linejoin="round"/>
<path d="M252.002 99.1531L215.028 99.1186" stroke="#525252" stroke-width="4" stroke-linecap="round" stroke-linejoin="round"/>
<path d="M170.66 99.0771L133.686 99.0426" stroke="#525252" stroke-width="4" stroke-linecap="round" stroke-linejoin="round"/>
<path d="M251.96 143.521L214.987 143.487" stroke="#525252" stroke-width="4" stroke-linecap="round" stroke-linejoin="round"/>
<path d="M170.618 143.446L133.644 143.411" stroke="#525252" stroke-width="4" stroke-linecap="round" stroke-linejoin="round"/>
<path d="M170.577 187.814L133.603 187.779" stroke="#525252" stroke-width="4" stroke-linecap="round" stroke-linejoin="round"/>
<path d="M170.536 232.182L133.562 232.148" stroke="#525252" stroke-width="4" stroke-linecap="round" stroke-linejoin="round"/>
<path d="M436.727 54.9569L399.753 54.9224" stroke="#88CECC" stroke-width="4" stroke-linecap="round" stroke-linejoin="round"/>
<path d="M436.686 99.3253L399.712 99.2908" stroke="#88CECC" stroke-width="4" stroke-linecap="round" stroke-linejoin="round"/>
<path d="M436.644 143.694L399.67 143.659" stroke="#88CECC" stroke-width="4" stroke-linecap="round" stroke-linejoin="round"/>
<path d="M436.603 188.062L399.629 188.028" stroke="#88CECC" stroke-width="4" stroke-linecap="round" stroke-linejoin="round"/>
<path d="M355.385 54.881L318.411 54.8465" stroke="#88CECC" stroke-width="4" stroke-linecap="round" stroke-linejoin="round"/>
<path d="M355.343 99.2494L318.37 99.2149" stroke="#88CECC" stroke-width="4" stroke-linecap="round" stroke-linejoin="round"/>
<path d="M355.302 143.618L318.329 143.583" stroke="#88CECC" stroke-width="4" stroke-linecap="round" stroke-linejoin="round"/>
<path d="M355.261 187.986L318.287 187.952" stroke="#88CECC" stroke-width="4" stroke-linecap="round" stroke-linejoin="round"/>
<path d="M355.219 232.355L318.246 232.32" stroke="#88CECC" stroke-width="4" stroke-linecap="round" stroke-linejoin="round"/>
<path d="M355.178 276.723L318.204 276.689" stroke="#88CECC" stroke-width="4" stroke-linecap="round" stroke-linejoin="round"/>
<path d="M355.136 321.091L318.163 321.057" stroke="#88CECC" stroke-width="4" stroke-linecap="round" stroke-linejoin="round"/>
<path d="M274.043 54.8052L237.069 54.7707" stroke="#88CECC" stroke-width="4" stroke-linecap="round" stroke-linejoin="round"/>
<path d="M192.701 54.7292L155.727 54.6947" stroke="#88CECC" stroke-width="4" stroke-linecap="round" stroke-linejoin="round"/>
<path d="M274.001 99.1736L237.028 99.1391" stroke="#88CECC" stroke-width="4" stroke-linecap="round" stroke-linejoin="round"/>
<path d="M192.659 99.0977L155.686 99.0632" stroke="#88CECC" stroke-width="4" stroke-linecap="round" stroke-linejoin="round"/>
<path d="M273.96 143.542L236.986 143.507" stroke="#88CECC" stroke-width="4" stroke-linecap="round" stroke-linejoin="round"/>
<path d="M192.618 143.466L155.644 143.432" stroke="#88CECC" stroke-width="4" stroke-linecap="round" stroke-linejoin="round"/>
<path d="M192.577 187.834L155.603 187.8" stroke="#88CECC" stroke-width="4" stroke-linecap="round" stroke-linejoin="round"/>
<path d="M192.535 232.203L155.561 232.168" stroke="#88CECC" stroke-width="4" stroke-linecap="round" stroke-linejoin="round"/>
<path d="M132.625 49.4093L125.563 98.7854" stroke="#54B9B5" stroke-width="10" stroke-linecap="round" stroke-linejoin="round"/>
<path d="M101.472 97.1469C101.798 94.871 103.014 92.8177 104.854 91.4385C106.693 90.0594 109.005 89.4675 111.281 89.793L126.536 91.9749L125.085 102.123C124.76 104.398 123.543 106.452 121.704 107.831C119.864 109.21 117.552 109.802 115.277 109.476L108.602 108.522C106.326 108.196 104.273 106.98 102.894 105.141C101.515 103.301 100.923 100.989 101.248 98.7133L101.472 97.1469Z" fill="#313234" stroke="#54B9B5" stroke-width="10" stroke-linejoin="round"/>
<path d="M130.66 63.1427L151.851 71.4831L153.826 57.6765L132.625 49.4093L130.66 63.1427Z" stroke="#54B9B5" stroke-width="10" stroke-linecap="round" stroke-linejoin="round"/>
</svg>
