<svg width="795" height="543" viewBox="0 0 795 543" fill="none" xmlns="http://www.w3.org/2000/svg">
<circle cx="258.5" cy="284.5" r="258.5" fill="#D5E5E2" fill-opacity="0.71"/>
<circle cx="605" cy="268" r="190" fill="#C4C4C4" fill-opacity="0.6"/>
<circle cx="414.5" cy="258.5" r="258.5" fill="#54B9B5" fill-opacity="0.7"/>
<path d="M188.224 90.2031L182.368 242.063C174.488 238.029 164.602 236.283 154.228 237.752C131.861 240.912 115.755 257.745 118.256 275.343C120.757 292.943 140.916 304.646 163.282 301.484C183.132 298.678 198.033 285.103 199.387 269.784L199.391 269.792C199.394 269.758 199.396 269.705 199.399 269.666C199.432 269.277 199.451 268.883 199.466 268.491C200.299 252.673 205.398 132.523 205.398 132.523L330.988 119.614L325.315 227.824C317.256 223.349 306.897 221.355 296.005 222.895C273.638 226.059 257.533 242.887 260.033 260.489C262.533 278.087 282.692 289.791 305.059 286.626C325.332 283.764 340.436 269.666 341.229 253.947L341.239 253.937C341.664 246.874 348.75 83.764 349 78L188.224 90.2031Z" fill="#54B9B5" fill-opacity="0.28"/>
<circle cx="594.5" cy="404.5" r="111.5" fill="#D5E5E2" fill-opacity="0.71"/>
<circle cx="483" cy="416" r="82" fill="#C4C4C4" fill-opacity="0.6"/>
</svg>
