<svg width="604" height="158" viewBox="0 0 604 158" fill="none" xmlns="http://www.w3.org/2000/svg">
<path d="M353 152C399.116 152 377 123.616 377 77.5C377 31.3842 347.116 4 301 4C254.884 4 210 31.3842 210 77.5C210 123.616 306.884 152 353 152Z" fill="#88CECC"/>
<path d="M351 157C393.802 157 391 123.302 391 80.5C391 37.6979 356.302 3 313.5 3C270.698 3 236 37.6979 236 80.5C236 123.302 308.198 157 351 157Z" fill="#E2E700" fill-opacity="0.7"/>
<path d="M390.486 136.384H388.662C388.918 133.504 390.614 125.056 393.75 111.04C396.886 96.96 398.838 86.432 399.606 79.456C399.606 78.432 399.254 77.216 398.549 75.808C397.91 74.336 397.238 73.152 396.534 72.256L395.574 70.912L395.862 69.472C399.446 68.384 405.622 67.84 414.39 67.84C415.222 69.376 415.638 71.584 415.638 74.464C415.638 77.28 414.038 85.28 410.838 98.464H411.318C417.014 98.464 421.078 96.32 423.51 92.032C426.006 87.68 427.862 80.384 429.078 70.144C433.622 68.608 438.39 67.84 443.382 67.84C443.51 68.288 443.542 69.376 443.478 71.104C443.478 72.832 443.158 75.072 442.518 77.824C441.878 80.512 440.918 83.36 439.638 86.368C438.422 89.376 436.598 92.224 434.166 94.912C431.798 97.536 429.046 99.648 425.91 101.248C429.622 113.92 432.822 122.176 435.51 126.016C436.662 127.616 437.558 128.416 438.198 128.416C439.35 128.416 441.142 127.84 443.574 126.688L444.726 126.112L446.934 129.664C444.566 131.84 441.814 133.632 438.677 135.04C435.606 136.448 432.694 137.152 429.942 137.152C427.19 137.152 425.014 136.064 423.414 133.888C421.878 131.712 420.566 129.024 419.478 125.824C418.454 122.56 417.366 118.72 416.214 114.304C415.062 109.888 414.294 106.56 413.91 104.32C413.334 104.384 411.83 104.416 409.398 104.416C405.622 120.416 403.734 130.432 403.734 134.464C401.238 135.744 396.822 136.384 390.486 136.384ZM455.647 137.152C453.471 137.152 451.647 136.416 450.175 134.944C448.767 133.472 448.063 131.424 448.063 128.8C448.063 126.112 449.631 117.632 452.767 103.36C455.967 89.024 457.567 78.688 457.567 72.352L456.991 68.128C461.983 66.4 466.655 65.536 471.007 65.536C471.647 66.432 471.967 68 471.967 70.24C471.967 75.36 470.335 85.28 467.071 100C463.871 114.656 462.271 123.2 462.271 125.632C462.271 128 462.559 129.184 463.135 129.184L469.855 126.784L471.583 130.144C469.407 131.872 466.751 133.472 463.615 134.944C460.543 136.416 457.887 137.152 455.647 137.152ZM493.627 99.424C493.627 102.112 492.763 106.752 491.035 113.344C489.307 119.872 488.443 124.16 488.443 126.208C488.443 128.192 488.731 129.184 489.307 129.184C489.691 129.184 491.163 128.576 493.723 127.36L494.875 126.784L496.507 130.144C495.931 130.656 495.163 131.296 494.203 132.064C493.243 132.832 491.451 133.888 488.827 135.232C486.203 136.512 483.771 137.152 481.531 137.152C479.291 137.152 477.531 136.48 476.251 135.136C474.971 133.728 474.331 131.872 474.331 129.568C474.331 127.2 475.131 123.04 476.731 117.088C478.331 111.072 479.131 107.168 479.131 105.376C479.131 102.688 478.299 100.16 476.635 97.792L475.771 96.64L475.867 95.392C479.259 94.432 484.763 93.952 492.379 93.952C493.211 94.912 493.627 96.736 493.627 99.424ZM482.683 83.488C481.403 82.208 480.763 80.512 480.763 78.4C480.763 76.288 481.627 74.432 483.355 72.832C485.147 71.232 487.195 70.432 489.499 70.432C491.803 70.432 493.595 71.072 494.875 72.352C496.155 73.632 496.795 75.328 496.795 77.44C496.795 79.488 495.867 81.312 494.011 82.912C492.219 84.512 490.203 85.312 487.963 85.312C485.723 85.312 483.963 84.704 482.683 83.488ZM497.127 157.504C496.807 156.736 496.647 155.04 496.647 152.416C496.647 149.792 497.895 142.752 500.391 131.296C502.887 119.776 504.135 110.912 504.135 104.704C504.135 103.488 503.847 102.208 503.271 100.864C502.695 99.456 502.087 98.368 501.447 97.6L500.583 96.544L500.679 95.296C503.687 94.336 508.999 93.856 516.615 93.856C517.319 95.2 517.767 97.088 517.959 99.52C522.887 95.488 526.983 93.472 530.247 93.472C533.575 93.472 536.231 94.848 538.215 97.6C540.263 100.352 541.287 104.384 541.287 109.696C541.287 118.976 539.591 125.888 536.199 130.432C532.807 134.912 528.519 137.152 523.335 137.152C520.647 137.152 518.407 136.768 516.615 136L515.655 135.616L516.327 131.872C516.903 132 517.575 132.064 518.343 132.064C520.007 132.064 521.447 131.296 522.663 129.76C523.943 128.224 524.903 126.272 525.543 123.904C526.823 119.168 527.463 114.784 527.463 110.752C527.463 104.992 526.279 102.112 523.911 102.112C522.055 102.112 520.071 102.848 517.959 104.32C517.703 108.8 516.391 116.64 514.023 127.84C511.655 139.04 510.471 148.064 510.471 154.912C507.015 156.32 502.567 157.184 497.127 157.504ZM575.325 123.424C575.325 127.456 573.533 130.752 569.949 133.312C566.429 135.872 562.397 137.152 557.853 137.152C553.309 137.152 549.693 136.192 547.005 134.272C544.381 132.352 543.069 130.656 543.069 129.184C543.069 128.288 544.189 126.848 546.429 124.864C548.669 122.816 550.557 121.568 552.093 121.12C555.293 123.488 557.917 127.232 559.965 132.352C562.333 132.16 563.517 131.04 563.517 128.992C563.517 126.048 560.925 121.888 555.741 116.512C550.557 111.072 547.965 106.752 547.965 103.552C547.965 100.352 549.405 97.888 552.285 96.16C555.165 94.368 558.621 93.472 562.653 93.472C566.749 93.472 569.821 94.208 571.869 95.68C573.917 97.088 574.941 99.04 574.941 101.536C574.941 103.968 572.989 107.36 569.085 111.712C569.533 112.16 570.109 112.768 570.813 113.536C571.517 114.24 572.445 115.616 573.597 117.664C574.749 119.712 575.325 121.632 575.325 123.424ZM566.109 108.352C568.797 106.048 570.141 103.776 570.141 101.536C570.141 99.296 568.605 98.176 565.533 98.176C564.061 98.176 562.845 98.496 561.885 99.136C560.925 99.712 560.445 100.384 560.445 101.152C560.445 102.56 561.853 104.544 564.669 107.104L566.109 108.352Z" fill="#3B3434"/>
<path d="M262 97H275.194" stroke="black" stroke-width="4" stroke-linecap="round" stroke-linejoin="round"/>
<path d="M262 81.1667H275.194" stroke="black" stroke-width="4" stroke-linecap="round" stroke-linejoin="round"/>
<path d="M262 65.3333H275.194" stroke="black" stroke-width="4" stroke-linecap="round" stroke-linejoin="round"/>
<path d="M262 49.5H275.194" stroke="black" stroke-width="4" stroke-linecap="round" stroke-linejoin="round"/>
<path d="M291.028 97H304.222" stroke="black" stroke-width="4" stroke-linecap="round" stroke-linejoin="round"/>
<path d="M291.028 81.1667H304.222" stroke="black" stroke-width="4" stroke-linecap="round" stroke-linejoin="round"/>
<path d="M291.028 65.3333H304.222" stroke="black" stroke-width="4" stroke-linecap="round" stroke-linejoin="round"/>
<path d="M291.028 49.5H304.222" stroke="black" stroke-width="4" stroke-linecap="round" stroke-linejoin="round"/>
<path d="M291.028 33.6667H304.222" stroke="black" stroke-width="4" stroke-linecap="round" stroke-linejoin="round"/>
<path d="M291.028 17.8333H304.222" stroke="black" stroke-width="4" stroke-linecap="round" stroke-linejoin="round"/>
<path d="M291.028 2H304.222" stroke="black" stroke-width="4" stroke-linecap="round" stroke-linejoin="round"/>
<path d="M320.056 97H333.25" stroke="black" stroke-width="4" stroke-linecap="round" stroke-linejoin="round"/>
<path d="M349.083 97H362.278" stroke="black" stroke-width="4" stroke-linecap="round" stroke-linejoin="round"/>
<path d="M320.056 81.1667H333.25" stroke="black" stroke-width="4" stroke-linecap="round" stroke-linejoin="round"/>
<path d="M320.056 65.3333H333.25" stroke="black" stroke-width="4" stroke-linecap="round" stroke-linejoin="round"/>
<path d="M349.083 65.3333H362.278" stroke="black" stroke-width="4" stroke-linecap="round" stroke-linejoin="round"/>
<path d="M349.083 49.5H362.278" stroke="black" stroke-width="4" stroke-linecap="round" stroke-linejoin="round"/>
<path d="M349.083 33.6667H362.278" stroke="black" stroke-width="4" stroke-linecap="round" stroke-linejoin="round"/>
<path d="M262 103H275.194" stroke="#88CECC" stroke-width="4" stroke-linecap="round" stroke-linejoin="round"/>
<path d="M262 87.1667H275.194" stroke="#88CECC" stroke-width="4" stroke-linecap="round" stroke-linejoin="round"/>
<path d="M262 71.3333H275.194" stroke="#88CECC" stroke-width="4" stroke-linecap="round" stroke-linejoin="round"/>
<path d="M262 55.5H275.194" stroke="#88CECC" stroke-width="4" stroke-linecap="round" stroke-linejoin="round"/>
<path d="M291.028 103H304.222" stroke="#88CECC" stroke-width="4" stroke-linecap="round" stroke-linejoin="round"/>
<path d="M291.028 86.1666H304.222" stroke="#88CECC" stroke-width="4" stroke-linecap="round" stroke-linejoin="round"/>
<path d="M291.028 71.3333H304.222" stroke="#88CECC" stroke-width="4" stroke-linecap="round" stroke-linejoin="round"/>
<path d="M291.028 55.5H304.222" stroke="#88CECC" stroke-width="4" stroke-linecap="round" stroke-linejoin="round"/>
<path d="M291.028 39.6667H304.222" stroke="#88CECC" stroke-width="4" stroke-linecap="round" stroke-linejoin="round"/>
<path d="M291.028 23.8333H304.222" stroke="#88CECC" stroke-width="4" stroke-linecap="round" stroke-linejoin="round"/>
<path d="M291.028 8H304.222" stroke="#88CECC" stroke-width="4" stroke-linecap="round" stroke-linejoin="round"/>
<path d="M349.083 103H362.278" stroke="#88CECC" stroke-width="4" stroke-linecap="round" stroke-linejoin="round"/>
<path d="M320.056 87.1667H333.25" stroke="#88CECC" stroke-width="4" stroke-linecap="round" stroke-linejoin="round"/>
<path d="M320.056 71.3333H333.25" stroke="#88CECC" stroke-width="4" stroke-linecap="round" stroke-linejoin="round"/>
<path d="M349.083 71.3333H362.278" stroke="#88CECC" stroke-width="4" stroke-linecap="round" stroke-linejoin="round"/>
<path d="M349.083 55.5H362.278" stroke="#88CECC" stroke-width="4" stroke-linecap="round" stroke-linejoin="round"/>
<path d="M349.083 39.6667H362.278" stroke="#88CECC" stroke-width="4" stroke-linecap="round" stroke-linejoin="round"/>
<rect x="314" y="78" width="48.4466" height="49.8927" fill="#E2E700" fill-opacity="0.51"/>
<path d="M304.277 53L315.847 64.5693H362.124C365.192 64.5693 368.135 65.7882 370.305 67.9579C372.474 70.1276 373.693 73.0703 373.693 76.1387V133.985C373.693 140.348 368.487 145.555 362.124 145.555H269.569C266.501 145.555 263.558 144.336 261.389 142.166C259.219 139.996 258 137.054 258 133.985V64.5693C258 58.1484 263.148 53 269.569 53H304.277ZM356.339 81.9233H336.093V105.409L333.201 105.062C330.132 105.062 327.19 106.281 325.02 108.451C322.85 110.62 321.631 113.563 321.631 116.631C321.631 119.7 322.85 122.642 325.02 124.812C327.19 126.982 330.132 128.201 333.201 128.201C339.622 128.201 344.77 123.052 344.77 116.631V93.4927H356.339V81.9233Z" fill="#54B9B5"/>
<path d="M41.472 78.184C41.472 84.328 39.136 89.192 34.464 92.776C29.792 96.36 24.128 98.152 17.472 98.152C12.992 98.152 9.28 97.032 6.336 94.792C3.456 92.488 1.856 90.536 1.536 88.936C2.24 86.824 3.744 84.456 6.048 81.832C8.352 79.208 10.432 77.608 12.288 77.032C15.552 79.144 18.592 83.848 21.408 91.144C25.568 91.016 27.648 88.744 27.648 84.328C27.648 81.896 26.656 78.92 24.672 75.4C22.752 71.816 20.64 68.488 18.336 65.416C16.032 62.28 13.888 58.792 11.904 54.952C9.984 51.048 9.024 47.592 9.024 44.584C9.024 39.72 10.976 35.88 14.88 33.064C18.848 30.248 23.296 28.84 28.224 28.84C33.152 28.84 36.96 29.896 39.648 32.008C42.4 34.12 43.776 36.52 43.776 39.208C43.776 41.896 42.752 44.648 40.704 47.464C38.656 50.28 36.608 52.52 34.56 54.184L31.488 56.68C32.256 57.704 33.184 59.016 34.272 60.616C35.36 62.216 36.832 64.936 38.688 68.776C40.544 72.616 41.472 75.752 41.472 78.184ZM34.08 46.696C34.976 45.864 35.776 44.872 36.48 43.72C37.184 42.504 37.536 41.256 37.536 39.976C37.536 38.632 36.768 37.512 35.232 36.616C33.696 35.72 31.84 35.272 29.664 35.272C27.552 35.272 25.76 35.784 24.288 36.808C22.88 37.768 22.176 38.952 22.176 40.36C22.176 41.704 22.624 43.304 23.52 45.16C24.48 46.952 25.408 48.456 26.304 49.672L27.744 51.496C28.384 51.176 29.376 50.504 30.72 49.48C32.128 48.456 33.248 47.528 34.08 46.696ZM60.7575 98.152C56.3415 98.152 52.8855 96.616 50.3895 93.544C47.8935 90.408 46.6455 86.056 46.6455 80.488C46.6455 73.384 48.5335 67.272 52.3095 62.152C56.1495 57.032 61.4295 54.472 68.1495 54.472L71.6055 54.664C72.6935 54.088 73.9095 53.8 75.2535 53.8C80.3095 53.8 82.8375 58.568 82.8375 68.104C85.4615 67.976 88.1175 67.624 90.8055 67.048L92.3415 66.664L92.9175 70.408C90.8055 71.304 87.9575 72.104 84.3735 72.808L82.4535 73.192C81.2375 79.912 78.7735 85.768 75.0615 90.76C71.3495 95.688 66.5815 98.152 60.7575 98.152ZM65.9415 89.896C68.6295 89.896 71.0295 88.168 73.1415 84.712C75.3175 81.256 76.8215 77.608 77.6535 73.768C70.8055 73.768 67.3815 71.208 67.3815 66.088C67.3815 64.04 67.7975 62.12 68.6295 60.328L69.1095 59.368C68.8535 59.24 68.5335 59.176 68.1495 59.176C67.7655 59.176 67.4775 59.24 67.2855 59.368C65.6855 60.392 64.1815 62.792 62.7735 66.568C61.3655 70.344 60.6615 74.664 60.6615 79.528C60.6615 86.44 62.4215 89.896 65.9415 89.896ZM86.4293 89.8C86.4293 87.048 87.2613 82.376 88.9253 75.784C90.5893 69.128 91.4213 65.064 91.4213 63.592C91.4213 62.056 90.2693 60.04 87.9653 57.544L88.0613 56.296C92.4133 55.4 98.1413 54.952 105.245 54.952C105.565 55.784 105.725 57.288 105.725 59.464C105.725 61.64 104.829 66.28 103.037 73.384C101.245 80.488 100.349 84.904 100.349 86.632C100.349 88.36 100.989 89.224 102.269 89.224C104.125 89.224 106.269 88.552 108.701 87.208C108.957 85.672 109.597 82.728 110.621 78.376C112.925 68.136 114.077 60.808 114.077 56.392C116.317 55.496 120.349 55.048 126.173 55.048H127.997C127.997 58.056 127.101 63.944 125.309 72.712C123.517 81.416 122.621 86.536 122.621 88.072C122.621 89.544 122.941 90.28 123.581 90.28C123.965 90.28 125.789 89.512 129.053 87.976L130.877 91.048C125.181 95.784 120.189 98.152 115.901 98.152C113.853 98.152 112.093 97.576 110.621 96.424C109.213 95.272 108.413 93.768 108.221 91.912C103.037 96.136 98.3333 98.248 94.1093 98.248C91.8693 98.248 90.0133 97.512 88.5413 96.04C87.1333 94.568 86.4293 92.488 86.4293 89.8ZM136.16 97.288H134.336C134.336 94.28 135.232 88.52 137.023 80.008C138.88 71.496 139.808 66.664 139.808 65.512C139.808 63.4 138.912 61.16 137.12 58.792L136.256 57.64L136.352 56.392C139.808 55.432 145.344 54.952 152.96 54.952C153.792 56.04 154.24 58.024 154.304 60.904C159.872 56.616 164.576 54.472 168.416 54.472C170.72 54.472 172.544 55.272 173.888 56.872C175.296 58.472 176 60.488 176 62.92C176 65.288 175.264 69.416 173.792 75.304C172.32 81.192 171.584 85.16 171.584 87.208C171.584 89.192 171.84 90.184 172.352 90.184C172.736 90.184 174.08 89.576 176.384 88.36L177.536 87.784L179.264 91.144C178.688 91.656 177.92 92.296 176.96 93.064C176 93.832 174.208 94.888 171.584 96.232C169.024 97.512 166.72 98.152 164.672 98.152C160 98.152 157.664 95.496 157.664 90.184C157.664 87.944 158.368 83.816 159.776 77.8C161.248 71.784 161.984 67.912 161.984 66.184C161.984 64.456 161.44 63.592 160.352 63.592C158.496 63.592 156.224 64.392 153.536 65.992C153.344 67.08 152.704 69.96 151.616 74.632C149.376 84.68 148.256 91.784 148.256 95.944C146.016 96.84 141.984 97.288 136.16 97.288ZM227.822 91.144C222.382 95.816 217.582 98.152 213.422 98.152C209.326 98.152 206.958 96.104 206.318 92.008C204.398 93.928 202.254 95.432 199.886 96.52C197.518 97.608 195.438 98.152 193.646 98.152C190.574 98.152 187.95 96.808 185.773 94.12C183.598 91.432 182.51 87.272 182.51 81.64C182.51 73.192 184.302 66.568 187.886 61.768C191.47 56.904 195.502 54.472 199.982 54.472C204.526 54.472 208.334 55.496 211.406 57.544C213.39 47.176 214.382 39.016 214.382 33.064L213.902 29.032C218.702 27.368 223.406 26.536 228.014 26.536C228.526 27.624 228.781 28.872 228.781 30.28C228.781 34.952 227.374 44.456 224.558 58.792C221.742 73.064 220.334 82.76 220.334 87.88C220.334 89.416 220.686 90.184 221.39 90.184C221.774 90.184 222.99 89.576 225.038 88.36L225.998 87.784L227.822 91.144ZM204.686 60.136C202.446 60.136 200.494 62.344 198.83 66.76C197.23 71.176 196.43 75.56 196.43 79.912C196.43 84.2 196.718 86.952 197.294 88.168C197.934 89.384 198.862 89.992 200.078 89.992C202.19 89.992 204.27 89.128 206.318 87.4C206.51 84.84 207.95 76.328 210.638 61.864C208.462 60.712 206.478 60.136 204.686 60.136Z" fill="#3B3434"/>
</svg>
