<svg width="617" height="155" viewBox="0 0 617 155" fill="none" xmlns="http://www.w3.org/2000/svg">
<path d="M358 150.5C404.116 150.5 386 130.616 386 84.5C386 38.3842 356.116 11 310 11C263.884 11 230 38.3842 230 84.5C230 130.616 311.884 150.5 358 150.5Z" fill="#88CECC"/>
<path d="M359 154.5C401.802 154.5 400 130.302 400 87.5C400 44.6979 365.302 10 322.5 10C279.698 10 245 44.6979 245 87.5C245 130.302 316.198 154.5 359 154.5Z" fill="#E2E700" fill-opacity="0.7"/>
<path d="M403.486 118.384H401.662C401.918 115.504 403.614 107.056 406.75 93.04C409.886 78.96 411.838 68.432 412.606 61.456C412.606 60.432 412.254 59.216 411.549 57.808C410.91 56.336 410.238 55.152 409.534 54.256L408.574 52.912L408.862 51.472C412.446 50.384 418.622 49.84 427.39 49.84C428.222 51.376 428.638 53.584 428.638 56.464C428.638 59.28 427.038 67.28 423.838 80.464H424.318C430.014 80.464 434.078 78.32 436.51 74.032C439.006 69.68 440.862 62.384 442.078 52.144C446.622 50.608 451.39 49.84 456.382 49.84C456.51 50.288 456.542 51.376 456.478 53.104C456.478 54.832 456.158 57.072 455.518 59.824C454.878 62.512 453.918 65.36 452.638 68.368C451.422 71.376 449.598 74.224 447.166 76.912C444.798 79.536 442.046 81.648 438.91 83.248C442.622 95.92 445.822 104.176 448.51 108.016C449.662 109.616 450.558 110.416 451.198 110.416C452.35 110.416 454.142 109.84 456.574 108.688L457.726 108.112L459.934 111.664C457.566 113.84 454.814 115.632 451.677 117.04C448.606 118.448 445.694 119.152 442.942 119.152C440.19 119.152 438.014 118.064 436.414 115.888C434.878 113.712 433.566 111.024 432.478 107.824C431.454 104.56 430.366 100.72 429.214 96.304C428.062 91.888 427.294 88.56 426.91 86.32C426.334 86.384 424.83 86.416 422.398 86.416C418.622 102.416 416.734 112.432 416.734 116.464C414.238 117.744 409.822 118.384 403.486 118.384ZM468.647 119.152C466.471 119.152 464.647 118.416 463.175 116.944C461.767 115.472 461.063 113.424 461.063 110.8C461.063 108.112 462.631 99.632 465.767 85.36C468.967 71.024 470.567 60.688 470.567 54.352L469.991 50.128C474.983 48.4 479.655 47.536 484.007 47.536C484.647 48.432 484.967 50 484.967 52.24C484.967 57.36 483.335 67.28 480.071 82C476.871 96.656 475.271 105.2 475.271 107.632C475.271 110 475.559 111.184 476.135 111.184L482.855 108.784L484.583 112.144C482.407 113.872 479.751 115.472 476.615 116.944C473.543 118.416 470.887 119.152 468.647 119.152ZM506.627 81.424C506.627 84.112 505.763 88.752 504.035 95.344C502.307 101.872 501.443 106.16 501.443 108.208C501.443 110.192 501.731 111.184 502.307 111.184C502.691 111.184 504.163 110.576 506.723 109.36L507.875 108.784L509.507 112.144C508.931 112.656 508.163 113.296 507.203 114.064C506.243 114.832 504.451 115.888 501.827 117.232C499.203 118.512 496.771 119.152 494.531 119.152C492.291 119.152 490.531 118.48 489.251 117.136C487.971 115.728 487.331 113.872 487.331 111.568C487.331 109.2 488.131 105.04 489.731 99.088C491.331 93.072 492.131 89.168 492.131 87.376C492.131 84.688 491.299 82.16 489.635 79.792L488.771 78.64L488.867 77.392C492.259 76.432 497.763 75.952 505.379 75.952C506.211 76.912 506.627 78.736 506.627 81.424ZM495.683 65.488C494.403 64.208 493.763 62.512 493.763 60.4C493.763 58.288 494.627 56.432 496.355 54.832C498.147 53.232 500.195 52.432 502.499 52.432C504.803 52.432 506.595 53.072 507.875 54.352C509.155 55.632 509.795 57.328 509.795 59.44C509.795 61.488 508.867 63.312 507.011 64.912C505.219 66.512 503.203 67.312 500.963 67.312C498.723 67.312 496.963 66.704 495.683 65.488ZM510.127 139.504C509.807 138.736 509.647 137.04 509.647 134.416C509.647 131.792 510.895 124.752 513.391 113.296C515.887 101.776 517.135 92.912 517.135 86.704C517.135 85.488 516.847 84.208 516.271 82.864C515.695 81.456 515.087 80.368 514.447 79.6L513.583 78.544L513.679 77.296C516.687 76.336 521.999 75.856 529.615 75.856C530.319 77.2 530.767 79.088 530.959 81.52C535.887 77.488 539.983 75.472 543.247 75.472C546.575 75.472 549.231 76.848 551.215 79.6C553.263 82.352 554.287 86.384 554.287 91.696C554.287 100.976 552.591 107.888 549.199 112.432C545.807 116.912 541.519 119.152 536.335 119.152C533.647 119.152 531.407 118.768 529.615 118L528.655 117.616L529.327 113.872C529.903 114 530.575 114.064 531.343 114.064C533.007 114.064 534.447 113.296 535.663 111.76C536.943 110.224 537.903 108.272 538.543 105.904C539.823 101.168 540.463 96.784 540.463 92.752C540.463 86.992 539.279 84.112 536.911 84.112C535.055 84.112 533.071 84.848 530.959 86.32C530.703 90.8 529.391 98.64 527.023 109.84C524.655 121.04 523.471 130.064 523.471 136.912C520.015 138.32 515.567 139.184 510.127 139.504ZM588.325 105.424C588.325 109.456 586.533 112.752 582.949 115.312C579.429 117.872 575.397 119.152 570.853 119.152C566.309 119.152 562.693 118.192 560.005 116.272C557.381 114.352 556.069 112.656 556.069 111.184C556.069 110.288 557.189 108.848 559.429 106.864C561.669 104.816 563.557 103.568 565.093 103.12C568.293 105.488 570.917 109.232 572.965 114.352C575.333 114.16 576.517 113.04 576.517 110.992C576.517 108.048 573.925 103.888 568.741 98.512C563.557 93.072 560.965 88.752 560.965 85.552C560.965 82.352 562.405 79.888 565.285 78.16C568.165 76.368 571.621 75.472 575.653 75.472C579.749 75.472 582.821 76.208 584.869 77.68C586.917 79.088 587.941 81.04 587.941 83.536C587.941 85.968 585.989 89.36 582.085 93.712C582.533 94.16 583.109 94.768 583.813 95.536C584.517 96.24 585.445 97.616 586.597 99.664C587.749 101.712 588.325 103.632 588.325 105.424ZM579.109 90.352C581.797 88.048 583.141 85.776 583.141 83.536C583.141 81.296 581.605 80.176 578.533 80.176C577.061 80.176 575.845 80.496 574.885 81.136C573.925 81.712 573.445 82.384 573.445 83.152C573.445 84.56 574.853 86.544 577.669 89.104L579.109 90.352Z" fill="#FDFDFD"/>
<path d="M269 82H282.194" stroke="black" stroke-width="4" stroke-linecap="round" stroke-linejoin="round"/>
<path d="M269 66.1666H282.194" stroke="black" stroke-width="4" stroke-linecap="round" stroke-linejoin="round"/>
<path d="M269 50.3333H282.194" stroke="black" stroke-width="4" stroke-linecap="round" stroke-linejoin="round"/>
<path d="M269 34.5H282.194" stroke="black" stroke-width="4" stroke-linecap="round" stroke-linejoin="round"/>
<path d="M298.028 82H311.222" stroke="black" stroke-width="4" stroke-linecap="round" stroke-linejoin="round"/>
<path d="M298.028 66.1666H311.222" stroke="black" stroke-width="4" stroke-linecap="round" stroke-linejoin="round"/>
<path d="M298.028 50.3333H311.222" stroke="black" stroke-width="4" stroke-linecap="round" stroke-linejoin="round"/>
<path d="M298.028 34.5H311.222" stroke="black" stroke-width="4" stroke-linecap="round" stroke-linejoin="round"/>
<path d="M298.028 18.6666H311.222" stroke="black" stroke-width="4" stroke-linecap="round" stroke-linejoin="round"/>
<path d="M298.028 2.83331H311.222" stroke="black" stroke-width="4" stroke-linecap="round" stroke-linejoin="round"/>
<path d="M327.056 82H340.25" stroke="black" stroke-width="4" stroke-linecap="round" stroke-linejoin="round"/>
<path d="M356.083 82H369.278" stroke="black" stroke-width="4" stroke-linecap="round" stroke-linejoin="round"/>
<path d="M327.056 66.1666H340.25" stroke="black" stroke-width="4" stroke-linecap="round" stroke-linejoin="round"/>
<path d="M327.056 51.3333H340.25" stroke="black" stroke-width="4" stroke-linecap="round" stroke-linejoin="round"/>
<path d="M356.083 50.3333H369.278" stroke="black" stroke-width="4" stroke-linecap="round" stroke-linejoin="round"/>
<path d="M356.083 34.5H369.278" stroke="black" stroke-width="4" stroke-linecap="round" stroke-linejoin="round"/>
<path d="M356.083 18.6666H369.278" stroke="black" stroke-width="4" stroke-linecap="round" stroke-linejoin="round"/>
<path d="M269 88H282.194" stroke="#88CECC" stroke-width="4" stroke-linecap="round" stroke-linejoin="round"/>
<path d="M269 72.1666H282.194" stroke="#88CECC" stroke-width="4" stroke-linecap="round" stroke-linejoin="round"/>
<path d="M269 56.3333H282.194" stroke="#88CECC" stroke-width="4" stroke-linecap="round" stroke-linejoin="round"/>
<path d="M269 40.5H282.194" stroke="#88CECC" stroke-width="4" stroke-linecap="round" stroke-linejoin="round"/>
<path d="M298.028 88H311.222" stroke="#88CECC" stroke-width="4" stroke-linecap="round" stroke-linejoin="round"/>
<path d="M298.028 71.1666H311.222" stroke="#88CECC" stroke-width="4" stroke-linecap="round" stroke-linejoin="round"/>
<path d="M298.028 56.3333H311.222" stroke="#88CECC" stroke-width="4" stroke-linecap="round" stroke-linejoin="round"/>
<path d="M298.028 40.5H311.222" stroke="#88CECC" stroke-width="4" stroke-linecap="round" stroke-linejoin="round"/>
<path d="M298.028 24.6666H311.222" stroke="#88CECC" stroke-width="4" stroke-linecap="round" stroke-linejoin="round"/>
<path d="M298.028 8.83331H311.222" stroke="#88CECC" stroke-width="4" stroke-linecap="round" stroke-linejoin="round"/>
<path d="M356.083 88H369.278" stroke="#88CECC" stroke-width="4" stroke-linecap="round" stroke-linejoin="round"/>
<path d="M327.056 72.1666H340.25" stroke="#88CECC" stroke-width="4" stroke-linecap="round" stroke-linejoin="round"/>
<path d="M327.056 56.3333H340.25" stroke="#88CECC" stroke-width="4" stroke-linecap="round" stroke-linejoin="round"/>
<path d="M356.083 56.3333H369.278" stroke="#88CECC" stroke-width="4" stroke-linecap="round" stroke-linejoin="round"/>
<path d="M356.083 40.5H369.278" stroke="#88CECC" stroke-width="4" stroke-linecap="round" stroke-linejoin="round"/>
<path d="M356.083 24.6666H369.278" stroke="#88CECC" stroke-width="4" stroke-linecap="round" stroke-linejoin="round"/>
<rect x="321" y="63" width="48.4466" height="49.8927" fill="#E2E700" fill-opacity="0.51"/>
<path d="M311.277 38L322.847 49.5693H369.124C372.192 49.5693 375.135 50.7882 377.305 52.9579C379.474 55.1276 380.693 58.0703 380.693 61.1387V118.985C380.693 125.348 375.487 130.555 369.124 130.555H276.569C273.501 130.555 270.558 129.336 268.389 127.166C266.219 124.996 265 122.054 265 118.985V49.5693C265 43.1484 270.148 38 276.569 38H311.277ZM363.339 66.9233H343.093V90.4091L340.201 90.062C337.132 90.062 334.19 91.2809 332.02 93.4506C329.85 95.6202 328.631 98.5629 328.631 101.631C328.631 104.7 329.85 107.642 332.02 109.812C334.19 111.982 337.132 113.201 340.201 113.201C346.622 113.201 351.77 108.052 351.77 101.631V78.4927H363.339V66.9233Z" fill="#54B9B5"/>
<path d="M41.472 94.184C41.472 100.328 39.136 105.192 34.464 108.776C29.792 112.36 24.128 114.152 17.472 114.152C12.992 114.152 9.28 113.032 6.336 110.792C3.456 108.488 1.856 106.536 1.536 104.936C2.24 102.824 3.744 100.456 6.048 97.832C8.352 95.208 10.432 93.608 12.288 93.032C15.552 95.144 18.592 99.848 21.408 107.144C25.568 107.016 27.648 104.744 27.648 100.328C27.648 97.896 26.656 94.92 24.672 91.4C22.752 87.816 20.64 84.488 18.336 81.416C16.032 78.28 13.888 74.792 11.904 70.952C9.984 67.048 9.024 63.592 9.024 60.584C9.024 55.72 10.976 51.88 14.88 49.064C18.848 46.248 23.296 44.84 28.224 44.84C33.152 44.84 36.96 45.896 39.648 48.008C42.4 50.12 43.776 52.52 43.776 55.208C43.776 57.896 42.752 60.648 40.704 63.464C38.656 66.28 36.608 68.52 34.56 70.184L31.488 72.68C32.256 73.704 33.184 75.016 34.272 76.616C35.36 78.216 36.832 80.936 38.688 84.776C40.544 88.616 41.472 91.752 41.472 94.184ZM34.08 62.696C34.976 61.864 35.776 60.872 36.48 59.72C37.184 58.504 37.536 57.256 37.536 55.976C37.536 54.632 36.768 53.512 35.232 52.616C33.696 51.72 31.84 51.272 29.664 51.272C27.552 51.272 25.76 51.784 24.288 52.808C22.88 53.768 22.176 54.952 22.176 56.36C22.176 57.704 22.624 59.304 23.52 61.16C24.48 62.952 25.408 64.456 26.304 65.672L27.744 67.496C28.384 67.176 29.376 66.504 30.72 65.48C32.128 64.456 33.248 63.528 34.08 62.696ZM60.7575 114.152C56.3415 114.152 52.8855 112.616 50.3895 109.544C47.8935 106.408 46.6455 102.056 46.6455 96.488C46.6455 89.384 48.5335 83.272 52.3095 78.152C56.1495 73.032 61.4295 70.472 68.1495 70.472L71.6055 70.664C72.6935 70.088 73.9095 69.8 75.2535 69.8C80.3095 69.8 82.8375 74.568 82.8375 84.104C85.4615 83.976 88.1175 83.624 90.8055 83.048L92.3415 82.664L92.9175 86.408C90.8055 87.304 87.9575 88.104 84.3735 88.808L82.4535 89.192C81.2375 95.912 78.7735 101.768 75.0615 106.76C71.3495 111.688 66.5815 114.152 60.7575 114.152ZM65.9415 105.896C68.6295 105.896 71.0295 104.168 73.1415 100.712C75.3175 97.256 76.8215 93.608 77.6535 89.768C70.8055 89.768 67.3815 87.208 67.3815 82.088C67.3815 80.04 67.7975 78.12 68.6295 76.328L69.1095 75.368C68.8535 75.24 68.5335 75.176 68.1495 75.176C67.7655 75.176 67.4775 75.24 67.2855 75.368C65.6855 76.392 64.1815 78.792 62.7735 82.568C61.3655 86.344 60.6615 90.664 60.6615 95.528C60.6615 102.44 62.4215 105.896 65.9415 105.896ZM86.4293 105.8C86.4293 103.048 87.2613 98.376 88.9253 91.784C90.5893 85.128 91.4213 81.064 91.4213 79.592C91.4213 78.056 90.2693 76.04 87.9653 73.544L88.0613 72.296C92.4133 71.4 98.1413 70.952 105.245 70.952C105.565 71.784 105.725 73.288 105.725 75.464C105.725 77.64 104.829 82.28 103.037 89.384C101.245 96.488 100.349 100.904 100.349 102.632C100.349 104.36 100.989 105.224 102.269 105.224C104.125 105.224 106.269 104.552 108.701 103.208C108.957 101.672 109.597 98.728 110.621 94.376C112.925 84.136 114.077 76.808 114.077 72.392C116.317 71.496 120.349 71.048 126.173 71.048H127.997C127.997 74.056 127.101 79.944 125.309 88.712C123.517 97.416 122.621 102.536 122.621 104.072C122.621 105.544 122.941 106.28 123.581 106.28C123.965 106.28 125.789 105.512 129.053 103.976L130.877 107.048C125.181 111.784 120.189 114.152 115.901 114.152C113.853 114.152 112.093 113.576 110.621 112.424C109.213 111.272 108.413 109.768 108.221 107.912C103.037 112.136 98.3333 114.248 94.1093 114.248C91.8693 114.248 90.0133 113.512 88.5413 112.04C87.1333 110.568 86.4293 108.488 86.4293 105.8ZM136.16 113.288H134.336C134.336 110.28 135.232 104.52 137.023 96.008C138.88 87.496 139.808 82.664 139.808 81.512C139.808 79.4 138.912 77.16 137.12 74.792L136.256 73.64L136.352 72.392C139.808 71.432 145.344 70.952 152.96 70.952C153.792 72.04 154.24 74.024 154.304 76.904C159.872 72.616 164.576 70.472 168.416 70.472C170.72 70.472 172.544 71.272 173.888 72.872C175.296 74.472 176 76.488 176 78.92C176 81.288 175.264 85.416 173.792 91.304C172.32 97.192 171.584 101.16 171.584 103.208C171.584 105.192 171.84 106.184 172.352 106.184C172.736 106.184 174.08 105.576 176.384 104.36L177.536 103.784L179.264 107.144C178.688 107.656 177.92 108.296 176.96 109.064C176 109.832 174.208 110.888 171.584 112.232C169.024 113.512 166.72 114.152 164.672 114.152C160 114.152 157.664 111.496 157.664 106.184C157.664 103.944 158.368 99.816 159.776 93.8C161.248 87.784 161.984 83.912 161.984 82.184C161.984 80.456 161.44 79.592 160.352 79.592C158.496 79.592 156.224 80.392 153.536 81.992C153.344 83.08 152.704 85.96 151.616 90.632C149.376 100.68 148.256 107.784 148.256 111.944C146.016 112.84 141.984 113.288 136.16 113.288ZM227.822 107.144C222.382 111.816 217.582 114.152 213.422 114.152C209.326 114.152 206.958 112.104 206.318 108.008C204.398 109.928 202.254 111.432 199.886 112.52C197.518 113.608 195.438 114.152 193.646 114.152C190.574 114.152 187.95 112.808 185.773 110.12C183.598 107.432 182.51 103.272 182.51 97.64C182.51 89.192 184.302 82.568 187.886 77.768C191.47 72.904 195.502 70.472 199.982 70.472C204.526 70.472 208.334 71.496 211.406 73.544C213.39 63.176 214.382 55.016 214.382 49.064L213.902 45.032C218.702 43.368 223.406 42.536 228.014 42.536C228.526 43.624 228.781 44.872 228.781 46.28C228.781 50.952 227.374 60.456 224.558 74.792C221.742 89.064 220.334 98.76 220.334 103.88C220.334 105.416 220.686 106.184 221.39 106.184C221.774 106.184 222.99 105.576 225.038 104.36L225.998 103.784L227.822 107.144ZM204.686 76.136C202.446 76.136 200.494 78.344 198.83 82.76C197.23 87.176 196.43 91.56 196.43 95.912C196.43 100.2 196.718 102.952 197.294 104.168C197.934 105.384 198.862 105.992 200.078 105.992C202.19 105.992 204.27 105.128 206.318 103.4C206.51 100.84 207.95 92.328 210.638 77.864C208.462 76.712 206.478 76.136 204.686 76.136Z" fill="#FDFDFD"/>
</svg>
