<svg width="617" height="154" viewBox="0 0 617 154" fill="none" xmlns="http://www.w3.org/2000/svg">
<path d="M358 149.667C404.116 149.667 386 129.782 386 83.6667C386 37.5509 356.116 10.1667 310 10.1667C263.884 10.1667 230 37.5509 230 83.6667C230 129.782 311.884 149.667 358 149.667Z" fill="#88CECC"/>
<path d="M359 153.667C401.802 153.667 400 129.469 400 86.6667C400 43.8646 365.302 9.16669 322.5 9.16669C279.698 9.16669 245 43.8646 245 86.6667C245 129.469 316.198 153.667 359 153.667Z" fill="#E2E700" fill-opacity="0.7"/>
<path d="M403.486 117.551H401.662C401.918 114.671 403.614 106.223 406.75 92.2067C409.886 78.1267 411.838 67.5987 412.606 60.6227C412.606 59.5987 412.254 58.3827 411.549 56.9747C410.91 55.5027 410.238 54.3187 409.534 53.4227L408.574 52.0787L408.862 50.6387C412.446 49.5507 418.622 49.0067 427.39 49.0067C428.222 50.5427 428.638 52.7507 428.638 55.6307C428.638 58.4467 427.038 66.4467 423.838 79.6307H424.318C430.014 79.6307 434.078 77.4867 436.51 73.1987C439.006 68.8467 440.862 61.5507 442.078 51.3107C446.622 49.7747 451.39 49.0067 456.382 49.0067C456.51 49.4547 456.542 50.5427 456.478 52.2707C456.478 53.9987 456.158 56.2387 455.518 58.9907C454.878 61.6787 453.918 64.5267 452.638 67.5347C451.422 70.5427 449.598 73.3907 447.166 76.0787C444.798 78.7027 442.046 80.8147 438.91 82.4147C442.622 95.0867 445.822 103.343 448.51 107.183C449.662 108.783 450.558 109.583 451.198 109.583C452.35 109.583 454.142 109.007 456.574 107.855L457.726 107.279L459.934 110.831C457.566 113.007 454.814 114.799 451.677 116.207C448.606 117.615 445.694 118.319 442.942 118.319C440.19 118.319 438.014 117.231 436.414 115.055C434.878 112.879 433.566 110.191 432.478 106.991C431.454 103.727 430.366 99.8867 429.214 95.4707C428.062 91.0547 427.294 87.7267 426.91 85.4867C426.334 85.5507 424.83 85.5827 422.398 85.5827C418.622 101.583 416.734 111.599 416.734 115.631C414.238 116.911 409.822 117.551 403.486 117.551ZM468.647 118.319C466.471 118.319 464.647 117.583 463.175 116.111C461.767 114.639 461.063 112.591 461.063 109.967C461.063 107.279 462.631 98.7987 465.767 84.5267C468.967 70.1907 470.567 59.8547 470.567 53.5187L469.991 49.2947C474.983 47.5667 479.655 46.7027 484.007 46.7027C484.647 47.5987 484.967 49.1667 484.967 51.4067C484.967 56.5267 483.335 66.4467 480.071 81.1667C476.871 95.8227 475.271 104.367 475.271 106.799C475.271 109.167 475.559 110.351 476.135 110.351L482.855 107.951L484.583 111.311C482.407 113.039 479.751 114.639 476.615 116.111C473.543 117.583 470.887 118.319 468.647 118.319ZM506.627 80.5907C506.627 83.2787 505.763 87.9187 504.035 94.5107C502.307 101.039 501.443 105.327 501.443 107.375C501.443 109.359 501.731 110.351 502.307 110.351C502.691 110.351 504.163 109.743 506.723 108.527L507.875 107.951L509.507 111.311C508.931 111.823 508.163 112.463 507.203 113.231C506.243 113.999 504.451 115.055 501.827 116.399C499.203 117.679 496.771 118.319 494.531 118.319C492.291 118.319 490.531 117.647 489.251 116.303C487.971 114.895 487.331 113.039 487.331 110.735C487.331 108.367 488.131 104.207 489.731 98.2547C491.331 92.2387 492.131 88.3347 492.131 86.5427C492.131 83.8547 491.299 81.3267 489.635 78.9587L488.771 77.8067L488.867 76.5587C492.259 75.5987 497.763 75.1187 505.379 75.1187C506.211 76.0787 506.627 77.9027 506.627 80.5907ZM495.683 64.6547C494.403 63.3747 493.763 61.6787 493.763 59.5667C493.763 57.4547 494.627 55.5987 496.355 53.9987C498.147 52.3987 500.195 51.5987 502.499 51.5987C504.803 51.5987 506.595 52.2387 507.875 53.5187C509.155 54.7987 509.795 56.4947 509.795 58.6067C509.795 60.6547 508.867 62.4787 507.011 64.0787C505.219 65.6787 503.203 66.4787 500.963 66.4787C498.723 66.4787 496.963 65.8707 495.683 64.6547ZM510.127 138.671C509.807 137.903 509.647 136.207 509.647 133.583C509.647 130.959 510.895 123.919 513.391 112.463C515.887 100.943 517.135 92.0787 517.135 85.8707C517.135 84.6547 516.847 83.3747 516.271 82.0307C515.695 80.6227 515.087 79.5347 514.447 78.7667L513.583 77.7107L513.679 76.4627C516.687 75.5027 521.999 75.0227 529.615 75.0227C530.319 76.3667 530.767 78.2547 530.959 80.6867C535.887 76.6547 539.983 74.6387 543.247 74.6387C546.575 74.6387 549.231 76.0147 551.215 78.7667C553.263 81.5187 554.287 85.5507 554.287 90.8627C554.287 100.143 552.591 107.055 549.199 111.599C545.807 116.079 541.519 118.319 536.335 118.319C533.647 118.319 531.407 117.935 529.615 117.167L528.655 116.783L529.327 113.039C529.903 113.167 530.575 113.231 531.343 113.231C533.007 113.231 534.447 112.463 535.663 110.927C536.943 109.391 537.903 107.439 538.543 105.071C539.823 100.335 540.463 95.9507 540.463 91.9187C540.463 86.1587 539.279 83.2787 536.911 83.2787C535.055 83.2787 533.071 84.0147 530.959 85.4867C530.703 89.9667 529.391 97.8067 527.023 109.007C524.655 120.207 523.471 129.231 523.471 136.079C520.015 137.487 515.567 138.351 510.127 138.671ZM588.325 104.591C588.325 108.623 586.533 111.919 582.949 114.479C579.429 117.039 575.397 118.319 570.853 118.319C566.309 118.319 562.693 117.359 560.005 115.439C557.381 113.519 556.069 111.823 556.069 110.351C556.069 109.455 557.189 108.015 559.429 106.031C561.669 103.983 563.557 102.735 565.093 102.287C568.293 104.655 570.917 108.399 572.965 113.519C575.333 113.327 576.517 112.207 576.517 110.159C576.517 107.215 573.925 103.055 568.741 97.6787C563.557 92.2387 560.965 87.9187 560.965 84.7187C560.965 81.5187 562.405 79.0547 565.285 77.3267C568.165 75.5347 571.621 74.6387 575.653 74.6387C579.749 74.6387 582.821 75.3747 584.869 76.8467C586.917 78.2547 587.941 80.2067 587.941 82.7027C587.941 85.1347 585.989 88.5267 582.085 92.8787C582.533 93.3267 583.109 93.9347 583.813 94.7027C584.517 95.4067 585.445 96.7827 586.597 98.8307C587.749 100.879 588.325 102.799 588.325 104.591ZM579.109 89.5187C581.797 87.2147 583.141 84.9427 583.141 82.7027C583.141 80.4627 581.605 79.3427 578.533 79.3427C577.061 79.3427 575.845 79.6627 574.885 80.3027C573.925 80.8787 573.445 81.5507 573.445 82.3187C573.445 83.7267 574.853 85.7107 577.669 88.2707L579.109 89.5187Z" fill="#3B3434"/>
<path d="M269 81.1667H282.194" stroke="black" stroke-width="4" stroke-linecap="round" stroke-linejoin="round"/>
<path d="M269 65.3333H282.194" stroke="black" stroke-width="4" stroke-linecap="round" stroke-linejoin="round"/>
<path d="M269 49.5H282.194" stroke="black" stroke-width="4" stroke-linecap="round" stroke-linejoin="round"/>
<path d="M269 33.6667H282.194" stroke="black" stroke-width="4" stroke-linecap="round" stroke-linejoin="round"/>
<path d="M298.028 81.1667H311.222" stroke="black" stroke-width="4" stroke-linecap="round" stroke-linejoin="round"/>
<path d="M298.028 65.3333H311.222" stroke="black" stroke-width="4" stroke-linecap="round" stroke-linejoin="round"/>
<path d="M298.028 49.5H311.222" stroke="black" stroke-width="4" stroke-linecap="round" stroke-linejoin="round"/>
<path d="M298.028 33.6667H311.222" stroke="black" stroke-width="4" stroke-linecap="round" stroke-linejoin="round"/>
<path d="M298.028 17.8333H311.222" stroke="black" stroke-width="4" stroke-linecap="round" stroke-linejoin="round"/>
<path d="M298.028 2H311.222" stroke="black" stroke-width="4" stroke-linecap="round" stroke-linejoin="round"/>
<path d="M327.056 81.1667H340.25" stroke="black" stroke-width="4" stroke-linecap="round" stroke-linejoin="round"/>
<path d="M356.083 81.1667H369.278" stroke="black" stroke-width="4" stroke-linecap="round" stroke-linejoin="round"/>
<path d="M327.056 65.3333H340.25" stroke="black" stroke-width="4" stroke-linecap="round" stroke-linejoin="round"/>
<path d="M327.056 50.5H340.25" stroke="black" stroke-width="4" stroke-linecap="round" stroke-linejoin="round"/>
<path d="M356.083 49.5H369.278" stroke="black" stroke-width="4" stroke-linecap="round" stroke-linejoin="round"/>
<path d="M356.083 33.6667H369.278" stroke="black" stroke-width="4" stroke-linecap="round" stroke-linejoin="round"/>
<path d="M356.083 17.8333H369.278" stroke="black" stroke-width="4" stroke-linecap="round" stroke-linejoin="round"/>
<path d="M269 87.1667H282.194" stroke="#88CECC" stroke-width="4" stroke-linecap="round" stroke-linejoin="round"/>
<path d="M269 71.3333H282.194" stroke="#88CECC" stroke-width="4" stroke-linecap="round" stroke-linejoin="round"/>
<path d="M269 55.5H282.194" stroke="#88CECC" stroke-width="4" stroke-linecap="round" stroke-linejoin="round"/>
<path d="M269 39.6667H282.194" stroke="#88CECC" stroke-width="4" stroke-linecap="round" stroke-linejoin="round"/>
<path d="M298.028 87.1667H311.222" stroke="#88CECC" stroke-width="4" stroke-linecap="round" stroke-linejoin="round"/>
<path d="M298.028 70.3333H311.222" stroke="#88CECC" stroke-width="4" stroke-linecap="round" stroke-linejoin="round"/>
<path d="M298.028 55.5H311.222" stroke="#88CECC" stroke-width="4" stroke-linecap="round" stroke-linejoin="round"/>
<path d="M298.028 39.6667H311.222" stroke="#88CECC" stroke-width="4" stroke-linecap="round" stroke-linejoin="round"/>
<path d="M298.028 23.8333H311.222" stroke="#88CECC" stroke-width="4" stroke-linecap="round" stroke-linejoin="round"/>
<path d="M298.028 8H311.222" stroke="#88CECC" stroke-width="4" stroke-linecap="round" stroke-linejoin="round"/>
<path d="M356.083 87.1667H369.278" stroke="#88CECC" stroke-width="4" stroke-linecap="round" stroke-linejoin="round"/>
<path d="M327.056 71.3333H340.25" stroke="#88CECC" stroke-width="4" stroke-linecap="round" stroke-linejoin="round"/>
<path d="M327.056 55.5H340.25" stroke="#88CECC" stroke-width="4" stroke-linecap="round" stroke-linejoin="round"/>
<path d="M356.083 55.5H369.278" stroke="#88CECC" stroke-width="4" stroke-linecap="round" stroke-linejoin="round"/>
<path d="M356.083 39.6667H369.278" stroke="#88CECC" stroke-width="4" stroke-linecap="round" stroke-linejoin="round"/>
<path d="M356.083 23.8333H369.278" stroke="#88CECC" stroke-width="4" stroke-linecap="round" stroke-linejoin="round"/>
<rect x="321" y="62.1667" width="48.4466" height="49.8927" fill="#E2E700" fill-opacity="0.51"/>
<path d="M311.277 37.1667L322.847 48.736H369.124C372.192 48.736 375.135 49.9549 377.305 52.1246C379.474 54.2943 380.693 57.237 380.693 60.3053V118.152C380.693 124.515 375.487 129.721 369.124 129.721H276.569C273.501 129.721 270.558 128.502 268.389 126.333C266.219 124.163 265 121.22 265 118.152V48.736C265 42.315 270.148 37.1667 276.569 37.1667H311.277ZM363.339 66.09H343.093V89.5758L340.201 89.2287C337.132 89.2287 334.19 90.4476 332.02 92.6173C329.85 94.7869 328.631 97.7296 328.631 100.798C328.631 103.866 329.85 106.809 332.02 108.979C334.19 111.148 337.132 112.367 340.201 112.367C346.622 112.367 351.77 107.219 351.77 100.798V77.6593H363.339V66.09Z" fill="#54B9B5"/>
<path d="M41.472 93.3507C41.472 99.4947 39.136 104.359 34.464 107.943C29.792 111.527 24.128 113.319 17.472 113.319C12.992 113.319 9.28 112.199 6.336 109.959C3.456 107.655 1.856 105.703 1.536 104.103C2.24 101.991 3.744 99.6227 6.048 96.9987C8.352 94.3747 10.432 92.7747 12.288 92.1987C15.552 94.3107 18.592 99.0147 21.408 106.311C25.568 106.183 27.648 103.911 27.648 99.4947C27.648 97.0627 26.656 94.0867 24.672 90.5667C22.752 86.9827 20.64 83.6547 18.336 80.5827C16.032 77.4467 13.888 73.9587 11.904 70.1187C9.984 66.2147 9.024 62.7587 9.024 59.7507C9.024 54.8867 10.976 51.0467 14.88 48.2307C18.848 45.4147 23.296 44.0067 28.224 44.0067C33.152 44.0067 36.96 45.0627 39.648 47.1747C42.4 49.2867 43.776 51.6867 43.776 54.3747C43.776 57.0627 42.752 59.8147 40.704 62.6307C38.656 65.4467 36.608 67.6867 34.56 69.3507L31.488 71.8467C32.256 72.8707 33.184 74.1827 34.272 75.7827C35.36 77.3827 36.832 80.1027 38.688 83.9427C40.544 87.7827 41.472 90.9187 41.472 93.3507ZM34.08 61.8627C34.976 61.0307 35.776 60.0387 36.48 58.8867C37.184 57.6707 37.536 56.4227 37.536 55.1427C37.536 53.7987 36.768 52.6787 35.232 51.7827C33.696 50.8867 31.84 50.4387 29.664 50.4387C27.552 50.4387 25.76 50.9507 24.288 51.9747C22.88 52.9347 22.176 54.1187 22.176 55.5267C22.176 56.8707 22.624 58.4707 23.52 60.3267C24.48 62.1187 25.408 63.6227 26.304 64.8387L27.744 66.6627C28.384 66.3427 29.376 65.6707 30.72 64.6467C32.128 63.6227 33.248 62.6947 34.08 61.8627ZM60.7575 113.319C56.3415 113.319 52.8855 111.783 50.3895 108.711C47.8935 105.575 46.6455 101.223 46.6455 95.6547C46.6455 88.5507 48.5335 82.4387 52.3095 77.3187C56.1495 72.1987 61.4295 69.6387 68.1495 69.6387L71.6055 69.8307C72.6935 69.2547 73.9095 68.9667 75.2535 68.9667C80.3095 68.9667 82.8375 73.7347 82.8375 83.2707C85.4615 83.1427 88.1175 82.7907 90.8055 82.2147L92.3415 81.8307L92.9175 85.5747C90.8055 86.4707 87.9575 87.2707 84.3735 87.9747L82.4535 88.3587C81.2375 95.0787 78.7735 100.935 75.0615 105.927C71.3495 110.855 66.5815 113.319 60.7575 113.319ZM65.9415 105.063C68.6295 105.063 71.0295 103.335 73.1415 99.8787C75.3175 96.4227 76.8215 92.7747 77.6535 88.9347C70.8055 88.9347 67.3815 86.3747 67.3815 81.2547C67.3815 79.2067 67.7975 77.2867 68.6295 75.4947L69.1095 74.5347C68.8535 74.4067 68.5335 74.3427 68.1495 74.3427C67.7655 74.3427 67.4775 74.4067 67.2855 74.5347C65.6855 75.5587 64.1815 77.9587 62.7735 81.7347C61.3655 85.5107 60.6615 89.8307 60.6615 94.6947C60.6615 101.607 62.4215 105.063 65.9415 105.063ZM86.4293 104.967C86.4293 102.215 87.2613 97.5427 88.9253 90.9507C90.5893 84.2947 91.4213 80.2307 91.4213 78.7587C91.4213 77.2227 90.2693 75.2067 87.9653 72.7107L88.0613 71.4627C92.4133 70.5667 98.1413 70.1187 105.245 70.1187C105.565 70.9507 105.725 72.4547 105.725 74.6307C105.725 76.8067 104.829 81.4467 103.037 88.5507C101.245 95.6547 100.349 100.071 100.349 101.799C100.349 103.527 100.989 104.391 102.269 104.391C104.125 104.391 106.269 103.719 108.701 102.375C108.957 100.839 109.597 97.8947 110.621 93.5427C112.925 83.3027 114.077 75.9747 114.077 71.5587C116.317 70.6627 120.349 70.2147 126.173 70.2147H127.997C127.997 73.2227 127.101 79.1107 125.309 87.8787C123.517 96.5827 122.621 101.703 122.621 103.239C122.621 104.711 122.941 105.447 123.581 105.447C123.965 105.447 125.789 104.679 129.053 103.143L130.877 106.215C125.181 110.951 120.189 113.319 115.901 113.319C113.853 113.319 112.093 112.743 110.621 111.591C109.213 110.439 108.413 108.935 108.221 107.079C103.037 111.303 98.3333 113.415 94.1093 113.415C91.8693 113.415 90.0133 112.679 88.5413 111.207C87.1333 109.735 86.4293 107.655 86.4293 104.967ZM136.16 112.455H134.336C134.336 109.447 135.232 103.687 137.023 95.1747C138.88 86.6627 139.808 81.8307 139.808 80.6787C139.808 78.5667 138.912 76.3267 137.12 73.9587L136.256 72.8067L136.352 71.5587C139.808 70.5987 145.344 70.1187 152.96 70.1187C153.792 71.2067 154.24 73.1907 154.304 76.0707C159.872 71.7827 164.576 69.6387 168.416 69.6387C170.72 69.6387 172.544 70.4387 173.888 72.0387C175.296 73.6387 176 75.6547 176 78.0867C176 80.4547 175.264 84.5827 173.792 90.4707C172.32 96.3587 171.584 100.327 171.584 102.375C171.584 104.359 171.84 105.351 172.352 105.351C172.736 105.351 174.08 104.743 176.384 103.527L177.536 102.951L179.264 106.311C178.688 106.823 177.92 107.463 176.96 108.231C176 108.999 174.208 110.055 171.584 111.399C169.024 112.679 166.72 113.319 164.672 113.319C160 113.319 157.664 110.663 157.664 105.351C157.664 103.111 158.368 98.9827 159.776 92.9667C161.248 86.9507 161.984 83.0787 161.984 81.3507C161.984 79.6227 161.44 78.7587 160.352 78.7587C158.496 78.7587 156.224 79.5587 153.536 81.1587C153.344 82.2467 152.704 85.1267 151.616 89.7987C149.376 99.8467 148.256 106.951 148.256 111.111C146.016 112.007 141.984 112.455 136.16 112.455ZM227.822 106.311C222.382 110.983 217.582 113.319 213.422 113.319C209.326 113.319 206.958 111.271 206.318 107.175C204.398 109.095 202.254 110.599 199.886 111.687C197.518 112.775 195.438 113.319 193.646 113.319C190.574 113.319 187.95 111.975 185.773 109.287C183.598 106.599 182.51 102.439 182.51 96.8067C182.51 88.3587 184.302 81.7347 187.886 76.9347C191.47 72.0707 195.502 69.6387 199.982 69.6387C204.526 69.6387 208.334 70.6627 211.406 72.7107C213.39 62.3427 214.382 54.1827 214.382 48.2307L213.902 44.1987C218.702 42.5347 223.406 41.7027 228.014 41.7027C228.526 42.7907 228.781 44.0387 228.781 45.4467C228.781 50.1187 227.374 59.6227 224.558 73.9587C221.742 88.2307 220.334 97.9267 220.334 103.047C220.334 104.583 220.686 105.351 221.39 105.351C221.774 105.351 222.99 104.743 225.038 103.527L225.998 102.951L227.822 106.311ZM204.686 75.3027C202.446 75.3027 200.494 77.5107 198.83 81.9267C197.23 86.3427 196.43 90.7267 196.43 95.0787C196.43 99.3667 196.718 102.119 197.294 103.335C197.934 104.551 198.862 105.159 200.078 105.159C202.19 105.159 204.27 104.295 206.318 102.567C206.51 100.007 207.95 91.4947 210.638 77.0307C208.462 75.8787 206.478 75.3027 204.686 75.3027Z" fill="#3B3434"/>
</svg>
